<svg width="302" height="263" viewBox="0 0 302 263" fill="none" xmlns="http://www.w3.org/2000/svg">
<path d="M275.792 66.3282C274.271 65.1808 272.048 65.0479 270.406 66.0142C268.219 61.5996 262.138 59.6551 257.796 61.9801C256.661 57.2213 251.98 53.5677 247.089 53.6281C242.203 53.6884 237.601 57.4568 236.587 62.2337C236.424 62.9947 236.321 63.828 235.771 64.3836C234.89 65.2835 233.416 64.9815 232.154 64.8849C228.192 64.5769 224.213 67.3549 223.138 71.1776L277.658 70.9783C278.136 69.1304 277.314 67.4817 275.792 66.3343V66.3282Z" fill="#E0E0E0"/>
<path d="M77.8859 239.825C76.3641 238.677 74.1417 238.545 72.499 239.511C70.3129 235.096 64.2315 233.152 59.8895 235.477C58.7541 230.718 54.0738 227.064 49.1822 227.125C44.2905 227.185 39.6948 230.953 38.6802 235.73C38.5172 236.491 38.4145 237.325 37.8649 237.88C36.9832 238.78 35.5097 238.478 34.2475 238.381C30.2859 238.073 26.3062 240.851 25.2312 244.674L79.752 244.475C80.2291 242.627 79.4077 240.978 77.8859 239.831V239.825Z" fill="#E0E0E0"/>
<path d="M162.065 220.953C161.304 220.379 160.192 220.313 159.371 220.796C158.278 218.591 155.234 217.613 153.066 218.779C152.499 216.399 150.156 214.575 147.716 214.6C145.27 214.63 142.975 216.514 142.462 218.905C142.383 219.286 142.329 219.703 142.057 219.98C141.616 220.433 140.879 220.282 140.251 220.228C138.271 220.071 136.278 221.466 135.74 223.374L163.001 223.278C163.242 222.354 162.825 221.526 162.071 220.953H162.065Z" fill="#E0E0E0"/>
<path d="M67.7403 180.255C66.9794 179.682 65.8682 179.615 65.0469 180.098C63.9538 177.894 60.9101 176.916 58.7421 178.081C58.1744 175.702 55.8313 173.878 53.3915 173.902C50.9457 173.932 48.6508 175.817 48.1375 178.208C48.059 178.589 48.0046 179.005 47.7329 179.283C47.292 179.736 46.5553 179.585 45.9272 179.531C43.9464 179.374 41.9535 180.769 41.416 182.677L68.6764 182.58C68.918 181.656 68.5013 180.829 67.7464 180.255H67.7403Z" fill="#F0F0F0"/>
<path d="M278.582 146.902C277.821 146.328 276.71 146.261 275.889 146.745C274.796 144.54 271.752 143.562 269.584 144.727C269.016 142.348 266.673 140.524 264.234 140.548C261.788 140.579 259.493 142.463 258.98 144.854C258.901 145.235 258.847 145.651 258.575 145.929C258.134 146.382 257.397 146.231 256.769 146.177C254.788 146.02 252.796 147.415 252.258 149.323L279.518 149.227C279.76 148.303 279.343 147.475 278.588 146.902H278.582Z" fill="#F0F0F0"/>
<path d="M194.953 32.9623C194.193 32.3886 193.081 32.3222 192.26 32.8053C191.167 30.601 188.123 29.6227 185.955 30.7882C185.388 28.4088 183.044 26.585 180.605 26.6092C178.159 26.6394 175.864 28.5236 175.351 30.915C175.272 31.2955 175.218 31.7122 174.946 31.99C174.505 32.4429 173.768 32.292 173.14 32.2376C171.16 32.0806 169.167 33.4756 168.629 35.384L195.89 35.2873C196.131 34.3634 195.714 33.536 194.96 32.9623H194.953Z" fill="#F0F0F0"/>
<path d="M78.8822 78.666C78.1213 78.0923 77.0101 78.0259 76.1888 78.509C75.0957 76.3047 72.052 75.3264 69.884 76.492C69.3163 74.1126 66.9731 72.2888 64.5333 72.3129C62.0875 72.3431 59.7927 74.2273 59.2794 76.6188C59.2008 76.9992 59.1465 77.4159 58.8747 77.6937C58.4339 78.1467 57.6971 77.9957 57.0691 77.9413C55.0882 77.7843 53.0953 79.1793 52.5579 81.0877L79.8182 80.9911C80.0598 80.0671 79.6431 79.2397 78.8882 78.666H78.8822Z" fill="#F0F0F0"/>
<path d="M256.6 14.5069C255.839 13.9332 254.728 13.8668 253.907 14.3499C252.814 12.1456 249.77 11.1673 247.602 12.3328C247.034 9.95345 244.691 8.12965 242.251 8.1538C239.806 8.184 237.511 10.0682 236.997 12.4597C236.919 12.8401 236.865 13.2568 236.593 13.5346C236.152 13.9875 235.415 13.8366 234.787 13.7822C232.806 13.6252 230.813 15.0202 230.276 16.9286L257.536 16.832C257.778 15.908 257.361 15.0806 256.606 14.5069H256.6Z" fill="#F0F0F0"/>
<path d="M268.087 198.862H158.93C156.98 198.862 155.391 197.274 155.391 195.323V36.3261C155.391 34.3755 156.98 32.7872 158.93 32.7872H268.087C270.037 32.7872 271.625 34.3755 271.625 36.3261V195.323C271.625 197.274 270.037 198.862 268.087 198.862ZM158.93 32.9382C157.064 32.9382 155.542 34.4601 155.542 36.3261V195.323C155.542 197.189 157.064 198.711 158.93 198.711H268.087C269.953 198.711 271.474 197.189 271.474 195.323V36.3261C271.474 34.4601 269.953 32.9382 268.087 32.9382H158.93Z" fill="#E0E0E0"/>
<path d="M142.214 198.862H33.0638C31.1132 198.862 29.5249 197.274 29.5249 195.323V36.3261C29.5249 34.3755 31.1132 32.7872 33.0638 32.7872H142.214C144.165 32.7872 145.753 34.3755 145.753 36.3261V195.323C145.753 197.274 144.165 198.862 142.214 198.862ZM33.0638 32.9382C31.1977 32.9382 29.6759 34.4601 29.6759 36.3261V195.323C29.6759 197.189 31.1977 198.711 33.0638 198.711H142.214C144.08 198.711 145.602 197.189 145.602 195.323V36.3261C145.602 34.4601 144.08 32.9382 142.214 32.9382H33.0638Z" fill="#E0E0E0"/>
<path d="M301.954 235.742H0V235.893H301.954V235.742Z" fill="#E0E0E0"/>
<path d="M40.9026 244.354H31.2039V244.505H40.9026V244.354Z" fill="#E0E0E0"/>
<path d="M135.203 242.718H102.876V242.869H135.203V242.718Z" fill="#E0E0E0"/>
<path d="M63.398 249.964H41.5063V250.115H63.398V249.964Z" fill="#E0E0E0"/>
<path d="M254.571 242.639H228.489V242.79H254.571V242.639Z" fill="#E0E0E0"/>
<path d="M263.775 242.639H259.952V242.79H263.775V242.639Z" fill="#E0E0E0"/>
<path d="M223.506 246.401H190.961V246.552H223.506V246.401Z" fill="#E0E0E0"/>
<path d="M66.0011 31.6035C64.606 29.2422 63.0419 26.8991 60.8195 25.2866C57.5041 22.8771 53.2043 22.4241 49.14 21.9229C40.2987 20.8419 31.524 19.1811 22.8941 16.9648C21.2213 16.536 19.8686 18.3417 20.7382 19.8334C21.7044 21.4941 22.7794 23.0824 24.0838 24.4895C26.421 27.0138 29.6337 28.9282 33.07 28.9403C31.8501 29.212 30.5577 29.52 29.7968 30.6252C29.4103 31.1868 29.3076 31.9115 29.6096 32.5215C30.1108 33.53 31.3488 33.6085 32.4057 33.5964L38.6561 33.53C37.1524 34.1218 36.3794 36.0181 36.8686 37.5581C37.3577 39.098 38.9218 40.173 40.5343 40.2696C41.9535 40.3541 43.3666 39.7563 44.4114 38.784C43.7108 39.7261 43.8558 41.2419 44.6892 42.1236C45.6614 43.1502 47.2678 43.3737 48.6266 42.9932C49.9854 42.6128 51.1389 41.7009 52.1535 40.7225C52.9808 42.0572 54.5691 42.8845 56.1392 42.8C57.7094 42.7154 59.195 41.719 59.8714 40.2998C60.8678 42.6067 64.2376 43.4522 66.2064 41.882C67.843 43.887 69.4796 45.898 71.1161 47.903L71.6899 43.2348C70.1016 39.2128 68.1993 35.3236 66.0011 31.6035Z" fill="#EBEBEB"/>
<path d="M115.642 23.8554C116.675 21.313 117.877 18.7645 119.833 16.838C122.756 13.9634 126.941 12.8764 130.891 11.7833C139.478 9.40392 147.909 6.4629 156.116 2.99043C157.71 2.32009 159.311 3.90233 158.677 5.50872C157.964 7.29629 157.137 9.02346 156.056 10.6117C154.117 13.4501 151.224 15.8235 147.83 16.3428C149.081 16.4334 150.403 16.5482 151.321 17.5265C151.786 18.0217 151.997 18.7283 151.786 19.3744C151.442 20.4494 150.228 20.703 149.183 20.848C147.118 21.1318 145.053 21.4217 142.993 21.7055C144.569 22.0739 145.608 23.8252 145.354 25.4196C145.101 27.0139 143.712 28.3062 142.13 28.6444C140.735 28.9403 139.255 28.5538 138.071 27.7506C138.899 28.578 138.989 30.0998 138.289 31.0963C137.48 32.2558 135.927 32.7148 134.526 32.5336C133.125 32.3524 131.851 31.6277 130.704 30.8124C130.082 32.2558 128.632 33.3066 127.068 33.4576C125.504 33.6025 123.886 32.8416 123.004 31.5371C122.358 33.9709 119.151 35.2995 116.971 34.0434C115.648 36.2718 114.326 38.5002 113.003 40.7286L111.741 36.1993C112.713 31.9901 114.018 27.8593 115.642 23.8554Z" fill="#EBEBEB"/>
<path d="M114.017 42.3202C116.221 29.2166 107.386 16.8068 94.2824 14.6023C81.1787 12.3977 68.769 21.2332 66.5645 34.3368C64.3599 47.4404 73.1954 59.8502 86.299 62.0547C99.4026 64.2593 111.812 55.4238 114.017 42.3202Z" fill="#E0E0E0"/>
<path d="M114.827 35.4533C116.207 22.2373 106.612 10.4052 93.3955 9.02543C80.1796 7.64571 68.3474 17.2409 66.9677 30.4569C65.588 43.6728 75.1831 55.505 88.3991 56.8847C101.615 58.2644 113.447 48.6693 114.827 35.4533Z" fill="#EBEBEB"/>
<path d="M106.52 48.574C115.149 39.9446 115.149 25.9536 106.52 17.3242C97.8906 8.69476 83.8996 8.69477 75.2702 17.3242C66.6408 25.9536 66.6408 39.9446 75.2702 48.574C83.8996 57.2034 97.8906 57.2034 106.52 48.574Z" fill="#FAFAFA"/>
<path d="M87.9896 13.4742L88.3036 16.0952L87.8145 16.1556L87.5487 13.9453L86.9931 14.0117L86.9448 13.6011L87.9835 13.4742H87.9896Z" fill="#E0E0E0"/>
<path d="M90.677 15.3947L90.7253 15.8053L88.7928 16.0348L88.7565 15.7087L89.6805 14.5975C89.7832 14.4707 89.8496 14.362 89.8858 14.2774C89.916 14.1868 89.9281 14.1023 89.916 14.0238C89.904 13.903 89.8496 13.8124 89.759 13.7581C89.6684 13.7037 89.5416 13.6856 89.3846 13.7037C89.1189 13.7339 88.9256 13.8547 88.8048 14.054L88.4304 13.8305C88.515 13.6796 88.6418 13.5588 88.8048 13.4622C88.9679 13.3655 89.1612 13.3051 89.3725 13.281C89.6564 13.2447 89.8919 13.281 90.0791 13.4018C90.2663 13.5165 90.369 13.6916 90.3992 13.9211C90.4173 14.0661 90.3992 14.1989 90.3569 14.3318C90.3146 14.4646 90.212 14.6217 90.067 14.8028L89.445 15.5517L90.677 15.4007V15.3947Z" fill="#E0E0E0"/>
<path d="M93.2434 50.7776C93.3884 50.8259 93.5091 50.9105 93.5997 51.0192C93.6903 51.1339 93.7447 51.2668 93.7688 51.4298C93.7869 51.5989 93.7688 51.756 93.6963 51.8949C93.6239 52.0337 93.5212 52.1485 93.3884 52.233C93.2495 52.3176 93.0924 52.3719 92.9173 52.3961C92.561 52.4384 92.2651 52.3599 92.0416 52.1606C91.8182 51.9613 91.6793 51.6473 91.6249 51.2306C91.5887 50.9346 91.6129 50.681 91.6974 50.4576C91.782 50.2341 91.9088 50.059 92.09 49.9261C92.2711 49.7933 92.4885 49.7147 92.7422 49.6845C92.875 49.6664 93.0019 49.6664 93.1287 49.6845C93.2495 49.6966 93.3582 49.7268 93.4548 49.7751L93.3219 50.1616C93.183 50.0952 93.0139 50.071 92.8086 50.0952C92.555 50.1254 92.3678 50.2281 92.247 50.3972C92.1262 50.5663 92.0779 50.8018 92.1141 51.0917C92.1805 50.995 92.2711 50.9165 92.3859 50.8561C92.5006 50.7957 92.6335 50.7595 92.7844 50.7353C92.9596 50.7172 93.1166 50.7293 93.2615 50.7776H93.2434ZM93.1951 51.8526C93.2797 51.762 93.3159 51.6473 93.2978 51.5144C93.2797 51.3755 93.2193 51.2728 93.1166 51.2064C93.0139 51.14 92.8811 51.1158 92.718 51.1339C92.561 51.152 92.4402 51.2124 92.3496 51.3091C92.259 51.4057 92.2228 51.5204 92.2409 51.6472C92.2591 51.7741 92.3194 51.8767 92.4221 51.9492C92.5308 52.0217 92.6637 52.0458 92.8328 52.0277C92.9837 52.0096 93.1045 51.9552 93.1891 51.8586L93.1951 51.8526Z" fill="#E0E0E0"/>
<path d="M98.1651 15.4672L98.4792 18.0881L97.99 18.1485L97.7243 15.9382L97.1687 16.0046L97.1204 15.594L98.1591 15.4672H98.1651Z" fill="#E0E0E0"/>
<path d="M102.187 47.0877C102.381 47.2085 102.495 47.3957 102.525 47.6433C102.544 47.8004 102.525 47.9453 102.459 48.0842C102.399 48.2231 102.296 48.3378 102.145 48.4284C102 48.525 101.813 48.5794 101.583 48.6096C101.396 48.6337 101.215 48.6277 101.034 48.5975C100.853 48.5673 100.696 48.5069 100.563 48.4284L100.726 48.0238C100.834 48.0902 100.955 48.1385 101.1 48.1687C101.245 48.1989 101.384 48.205 101.529 48.1869C101.698 48.1687 101.831 48.1144 101.922 48.0298C102.012 47.9453 102.048 47.8426 102.036 47.7158C102.018 47.5829 101.958 47.4863 101.843 47.432C101.728 47.3776 101.541 47.3655 101.287 47.3957L100.653 47.4742L100.617 46.0309L102.157 45.8437L102.205 46.2543L101.082 46.3872L101.1 46.9972L101.348 46.967C101.716 46.9247 102 46.967 102.193 47.0817L102.187 47.0877Z" fill="#E0E0E0"/>
<path d="M79.5589 17.7076L79.873 20.3285L79.3838 20.3889L79.1181 18.1786L78.5625 18.2451L78.5142 17.8344L79.5529 17.7076H79.5589Z" fill="#E0E0E0"/>
<path d="M80.9842 17.5325L81.2982 20.1534L80.8091 20.2138L80.5434 18.0035L79.9878 18.0699L79.9395 17.6593L80.9782 17.5325H80.9842Z" fill="#E0E0E0"/>
<path d="M83.2186 48.1204L83.5326 50.7414L83.0434 50.8018L82.7777 48.5915L82.2221 48.6579L82.1738 48.2472L83.2125 48.1204H83.2186Z" fill="#E0E0E0"/>
<path d="M84.6436 47.9513L84.9577 50.5723L84.4685 50.6326L84.2028 48.4223L83.6472 48.4888L83.5989 48.0781L84.6376 47.9513H84.6436Z" fill="#E0E0E0"/>
<path d="M105.72 22.5812L105.768 22.9918L103.836 23.2213L103.8 22.8952L104.724 21.784C104.826 21.6572 104.893 21.5485 104.923 21.464C104.953 21.3734 104.965 21.2888 104.953 21.2103C104.941 21.0895 104.887 20.9989 104.796 20.9446C104.706 20.8902 104.579 20.8721 104.422 20.8902C104.156 20.9204 103.963 21.0412 103.842 21.2405L103.468 21.0171C103.552 20.8661 103.679 20.7453 103.842 20.6487C104.005 20.5521 104.198 20.4917 104.41 20.4615C104.693 20.4252 104.929 20.4615 105.116 20.5822C105.303 20.697 105.406 20.8721 105.436 21.1016C105.454 21.2405 105.436 21.3794 105.394 21.5123C105.352 21.6451 105.249 21.8021 105.098 21.9833L104.476 22.7322L105.708 22.5812H105.72Z" fill="#E0E0E0"/>
<path d="M108.395 40.4266L107.93 40.481L108.003 41.0789L107.532 41.1332L107.459 40.5353L106.022 40.7105L105.98 40.3723L107.067 38.5304L107.586 38.47L106.566 40.2273L107.423 40.1247L107.357 39.5993L107.816 39.5449L107.882 40.0703L108.347 40.016L108.395 40.4266Z" fill="#E0E0E0"/>
<path d="M74.3531 24.1151L74.6671 26.736L74.178 26.7964L73.9123 24.5861L73.3567 24.6525L73.3083 24.2419L74.3471 24.1151H74.3531Z" fill="#E0E0E0"/>
<path d="M75.7059 26.4885C75.5308 26.4039 75.3798 26.265 75.259 26.0718C75.1382 25.8785 75.0658 25.643 75.0295 25.3652C74.9933 25.0874 75.0175 24.8398 75.0839 24.6224C75.1563 24.411 75.265 24.2359 75.416 24.1151C75.567 23.9883 75.7482 23.9158 75.9595 23.8856C76.1709 23.8615 76.3642 23.8856 76.5393 23.9762C76.7205 24.0608 76.8654 24.1997 76.9862 24.3929C77.107 24.5862 77.1794 24.8217 77.2157 25.0995C77.2519 25.3773 77.2338 25.6249 77.1613 25.8423C77.0888 26.0537 76.9801 26.2288 76.8231 26.3496C76.6722 26.4764 76.491 26.5489 76.2796 26.5791C76.0682 26.6032 75.875 26.5791 75.6999 26.4885H75.7059ZM76.648 25.8725C76.7386 25.7034 76.7627 25.4679 76.7265 25.1599C76.6903 24.8519 76.6057 24.6284 76.4789 24.4835C76.3521 24.3446 76.1951 24.2842 76.0079 24.3023C75.8206 24.3265 75.6878 24.4171 75.5972 24.5862C75.5066 24.7552 75.4825 24.9908 75.5187 25.2988C75.5549 25.6068 75.6395 25.8302 75.7663 25.9691C75.8931 26.108 76.0501 26.1684 76.2313 26.1503C76.4185 26.1261 76.5574 26.0355 76.648 25.8664V25.8725Z" fill="#E0E0E0"/>
<path d="M77.8196 43.5307C77.9042 43.6274 77.9585 43.7481 77.9766 43.887C77.9948 44.0441 77.9706 44.189 77.8921 44.3219C77.8196 44.4547 77.7049 44.5574 77.5479 44.6419C77.3908 44.7265 77.2097 44.7808 76.9923 44.805C76.7809 44.8291 76.5876 44.8231 76.4186 44.7748C76.2495 44.7325 76.1166 44.654 76.0139 44.5453C75.9113 44.4366 75.8509 44.3037 75.8328 44.1407C75.8146 43.9957 75.8328 43.8689 75.8992 43.7542C75.9596 43.6394 76.0502 43.5428 76.177 43.4643C76.0683 43.422 75.9777 43.3556 75.9113 43.265C75.8448 43.1805 75.8026 43.0718 75.7905 42.951C75.7724 42.806 75.7965 42.6732 75.863 42.5524C75.9294 42.4316 76.0321 42.335 76.177 42.2565C76.3159 42.178 76.485 42.1297 76.6722 42.1055C76.8654 42.0814 77.0406 42.0934 77.1976 42.1357C77.3546 42.178 77.4754 42.2505 77.572 42.3471C77.6686 42.4497 77.723 42.5705 77.7411 42.7155C77.7532 42.8362 77.7411 42.9449 77.6928 43.0476C77.6445 43.1442 77.572 43.2348 77.4754 43.3073C77.6203 43.3556 77.7351 43.422 77.8196 43.5187V43.5307ZM76.3702 42.637C76.2917 42.7094 76.2555 42.806 76.2676 42.9268C76.2797 43.0416 76.334 43.1201 76.4306 43.1805C76.5273 43.2348 76.6541 43.2529 76.8051 43.2348C76.9621 43.2167 77.0768 43.1684 77.1614 43.0899C77.2459 43.0114 77.2761 42.9147 77.264 42.806C77.2519 42.6853 77.1916 42.6007 77.0949 42.5464C76.9983 42.492 76.8715 42.4739 76.7205 42.492C76.5695 42.5101 76.4548 42.5584 76.3702 42.6309V42.637ZM77.3667 44.2615C77.4633 44.1769 77.4995 44.0622 77.4875 43.9354C77.4694 43.8085 77.409 43.7119 77.2942 43.6455C77.1795 43.5851 77.0345 43.5609 76.8534 43.5851C76.6722 43.6092 76.5393 43.6636 76.4427 43.7481C76.3521 43.8327 76.3099 43.9414 76.328 44.0743C76.3461 44.2071 76.4065 44.3037 76.5212 44.3641C76.6299 44.4245 76.7809 44.4487 76.956 44.4245C77.1372 44.4004 77.2701 44.346 77.3667 44.2615Z" fill="#E0E0E0"/>
<path d="M108.999 30.5286C109.144 30.6494 109.229 30.8064 109.253 31.0117C109.271 31.1627 109.253 31.3076 109.186 31.4405C109.126 31.5734 109.017 31.6881 108.872 31.7787C108.727 31.8693 108.54 31.9297 108.317 31.9599C108.13 31.984 107.948 31.978 107.767 31.9478C107.586 31.9116 107.429 31.8572 107.296 31.7787L107.459 31.3741C107.562 31.4405 107.689 31.4949 107.828 31.525C107.966 31.5552 108.111 31.5613 108.256 31.5432C108.431 31.5251 108.558 31.4707 108.649 31.3862C108.739 31.3016 108.776 31.1989 108.764 31.0782C108.752 30.9574 108.691 30.8668 108.588 30.8064C108.486 30.752 108.341 30.7339 108.148 30.752L107.906 30.7822L107.864 30.4501L108.371 29.6711L107.181 29.816L107.133 29.4053L108.921 29.1879L108.957 29.514L108.413 30.3474C108.661 30.3474 108.854 30.4078 108.999 30.5286Z" fill="#E0E0E0"/>
<path d="M73.701 33.7353C73.9244 33.9346 74.0633 34.2487 74.1116 34.6653C74.1479 34.9613 74.1237 35.2149 74.0392 35.4383C73.9546 35.6618 73.8278 35.8369 73.6466 35.9698C73.4655 36.1026 73.2481 36.1812 72.9944 36.2113C72.8616 36.2295 72.7287 36.2295 72.6079 36.2113C72.4871 36.1993 72.3784 36.1691 72.2818 36.1208L72.4147 35.7343C72.5536 35.8007 72.7287 35.8248 72.928 35.8007C73.1816 35.7705 73.3688 35.6678 73.4896 35.4987C73.6164 35.3296 73.6587 35.0941 73.6225 34.8042C73.556 34.9009 73.4655 34.9794 73.3507 35.0398C73.236 35.1002 73.1031 35.1424 72.9521 35.1606C72.783 35.1787 72.62 35.1606 72.4751 35.1183C72.3301 35.07 72.2093 34.9854 72.1187 34.8767C72.0282 34.762 71.9678 34.6291 71.9496 34.4661C71.9315 34.297 71.9497 34.1399 72.0221 34.001C72.0885 33.8622 72.1972 33.7474 72.3301 33.6629C72.469 33.5783 72.626 33.524 72.8012 33.4998C73.1575 33.4575 73.4534 33.536 73.6768 33.7353H73.701ZM73.3809 34.5929C73.4715 34.4963 73.5077 34.3815 73.4896 34.2547C73.4775 34.1279 73.4111 34.0252 73.3084 33.9588C73.1997 33.8863 73.0669 33.8621 72.8917 33.8803C72.7408 33.8984 72.62 33.9527 72.5354 34.0433C72.4509 34.1339 72.4147 34.2487 72.4328 34.3815C72.4509 34.5204 72.5113 34.6231 72.6139 34.6895C72.7166 34.7559 72.8495 34.7861 73.0125 34.762C73.1695 34.7439 73.2903 34.6835 73.3809 34.5868V34.5929Z" fill="#E0E0E0"/>
<path d="M90.4353 33.0529L89.2034 18.7645L89.8797 18.686L92.392 32.8174L90.4353 33.0529Z" fill="#E0E0E0"/>
<path d="M90.6769 33.995L83.2307 28.1733L83.6232 27.6177L91.8062 32.3826L90.6769 33.995Z" fill="#E0E0E0"/>
<path d="M87.3252 36.5193L101.789 25.8301L87.7117 36.9541L87.3252 36.5193Z" fill="#E6E6E6"/>
<path d="M93.4729 32.6905C93.6118 33.8259 92.7966 34.8586 91.6612 34.9975C90.5259 35.1364 89.4932 34.3211 89.3543 33.1857C89.2154 32.0504 90.0307 31.0177 91.166 30.8788C92.3014 30.7399 93.334 31.5552 93.4729 32.6905Z" fill="#E0E0E0"/>
<path d="M77.0887 55.7719C77.0887 55.7719 74.1235 63.6288 75.4401 63.5804C76.7566 63.5321 80.6337 57.7406 80.6337 57.7406C80.6337 57.7406 79.8365 55.2042 77.0887 55.7719Z" fill="#EBEBEB"/>
<path d="M109.488 51.146C109.488 51.146 114.235 58.0789 112.943 58.3385C111.657 58.6043 106.511 53.8998 106.511 53.8998C106.511 53.8998 106.68 51.2487 109.488 51.146Z" fill="#EBEBEB"/>
<path d="M63.6518 23.6078C63.7726 23.4206 78.2664 6.73462 78.2664 6.73462C78.2664 6.73462 71.3879 2.09057 64.9563 10.2252C58.5307 18.3598 63.6458 23.6078 63.6458 23.6078H63.6518Z" fill="#F0F0F0"/>
<path d="M78.2666 6.74064C79.0094 7.37474 76.1469 11.5598 72.1429 16.222C68.139 20.8842 64.2921 24.1513 63.5554 23.5172C62.8126 22.8831 65.4577 18.5833 69.4616 13.9211C73.4655 9.25893 77.5298 6.10654 78.2726 6.74064H78.2666Z" fill="#E0E0E0"/>
<path d="M68.0437 10.2776L65.8887 12.7892L72.3098 18.2986L74.4648 15.787L68.0437 10.2776Z" fill="#F0F0F0"/>
<path d="M68.0303 10.1528C68.1873 11.4512 67.2633 12.6227 65.9649 12.7798C64.6665 12.9368 63.495 12.0128 63.3379 10.7144C63.1809 9.41599 64.1049 8.24441 65.4033 8.08739C66.7017 7.93038 67.8733 8.85436 68.0303 10.1528Z" fill="#F0F0F0"/>
<g opacity="0.4">
<path d="M64.9745 10.4486L63.7969 11.8557C63.6399 12.1094 60.9284 17.1339 64.1774 21.168C65.041 19.6401 66.0918 18.1182 67.2694 16.5964C65.7173 15.6301 63.8513 13.7218 64.9745 10.4426V10.4486Z" fill="white"/>
</g>
<path d="M68.5134 15.0444L70.6815 12.5443L71.2974 13.0696L69.2744 15.6966L68.5134 15.0444Z" fill="#E0E0E0"/>
<path d="M63.7969 11.8557L66.7379 8.31683L66.4541 8.20209L63.6157 11.5659L63.7969 11.8557Z" fill="#E0E0E0"/>
<path d="M92.4946 4.24655C92.706 4.30694 112.889 13.3293 112.889 13.3293C112.889 13.3293 115.334 5.39398 105.684 1.60748C96.0335 -2.17902 92.5007 4.24051 92.5007 4.24051L92.4946 4.24655Z" fill="#F0F0F0"/>
<path d="M112.883 13.3353C112.49 14.2291 107.659 12.7012 102.03 10.2312C96.4019 7.75522 92.1624 5.02556 92.555 4.13178C92.9475 3.23799 97.8271 4.51828 103.456 6.9943C109.084 9.47032 113.275 12.4415 112.883 13.3353Z" fill="#E0E0E0"/>
<path d="M106.526 4.57549L103.497 3.24316L100.091 10.988L103.12 12.3203L106.526 4.57549Z" fill="#F0F0F0"/>
<path d="M106.644 4.53038C105.448 5.05578 104.053 4.51226 103.528 3.31653C103.003 2.12079 103.546 0.725763 104.742 0.200363C105.938 -0.325036 107.333 0.218482 107.858 1.41422C108.383 2.60996 107.84 4.00498 106.644 4.53038Z" fill="#F0F0F0"/>
<g opacity="0.4">
<path d="M105.473 1.69198L103.782 0.97333C103.492 0.894822 97.8997 -0.234486 94.9768 4.04118C96.6859 4.42164 98.4493 4.98931 100.249 5.67173C100.726 3.90832 102.006 1.56516 105.467 1.68594L105.473 1.69198Z" fill="white"/>
</g>
<path d="M102.103 6.40851L105.128 7.76126L104.802 8.50407L101.698 7.32645L102.103 6.40851Z" fill="#E0E0E0"/>
<path d="M103.782 0.973364L108.021 2.76093L108.051 2.45294L104.005 0.713684L103.782 0.973364Z" fill="#E0E0E0"/>
<path d="M72.01 18.0458C72.01 18.0458 73.6224 16.228 74.2565 15.606L73.9969 15.3826L71.7805 17.8465L72.01 18.0458Z" fill="#E0E0E0"/>
<path d="M36.8262 27.1829C36.8262 27.1829 51.2173 27.3943 54.4482 29.1275C57.6791 30.8607 64.7267 38.319 64.7267 38.319C64.7267 38.319 56.3384 31.3559 53.1438 29.8824C49.943 28.4089 36.8262 27.1829 36.8262 27.1829Z" fill="#E0E0E0"/>
<path d="M43.0889 30.3896C43.0889 30.3896 42.2796 34.623 45.4924 34.1218C48.7052 33.6206 49.8345 32.0504 49.8345 32.0504C49.8345 32.0504 49.3816 35.8912 51.8033 35.547C54.231 35.1968 55.7407 33.4635 55.7407 33.4635C55.7407 33.4635 52.5944 36.8756 50.8128 36.3804C49.0313 35.8792 49.4541 33.3609 49.4541 33.3609C49.4541 33.3609 45.7098 35.7705 43.9102 34.617C42.1105 33.4635 42.3521 32.8053 43.0889 30.3957V30.3896Z" fill="#E0E0E0"/>
<path d="M141.955 13.746C141.955 13.746 128.022 17.3695 125.299 19.8153C122.575 22.2611 117.496 31.1808 117.496 31.1808C117.496 31.1808 123.988 22.4302 126.748 20.238C129.508 18.0459 141.955 13.74 141.955 13.74V13.746Z" fill="#E0E0E0"/>
<path d="M136.634 18.3478C136.634 18.3478 138.428 22.2671 135.185 22.5389C131.948 22.8167 130.474 21.5545 130.474 21.5545C130.474 21.5545 131.827 25.178 129.387 25.4195C126.947 25.6611 125.063 24.3325 125.063 24.3325C125.063 24.3325 128.934 26.9051 130.547 25.9932C132.159 25.0874 131.145 22.7382 131.145 22.7382C131.145 22.7382 135.354 24.1936 136.827 22.6416C138.307 21.0895 137.908 20.5098 136.622 18.3478H136.634Z" fill="#E0E0E0"/>
<path d="M220.426 194.29C220.698 192.376 220.873 190.401 220.36 188.535C219.599 185.751 217.437 183.607 215.42 181.542C211.035 177.049 206.947 172.278 203.179 167.259C202.448 166.287 200.908 166.68 200.733 167.887C200.534 169.228 200.425 170.575 200.521 171.921C200.697 174.337 201.615 176.801 203.499 178.323C202.708 177.936 201.862 177.538 200.956 177.81C200.497 177.948 200.117 178.299 200.014 178.77C199.845 179.549 200.491 180.135 201.077 180.588C202.231 181.493 203.39 182.399 204.543 183.305C203.456 182.973 202.2 183.667 201.79 184.73C201.379 185.793 201.766 187.074 202.611 187.834C203.354 188.511 204.393 188.801 205.395 188.728C204.598 188.94 204.006 189.833 204.078 190.685C204.163 191.675 204.942 192.509 205.86 192.895C206.778 193.282 207.805 193.294 208.801 193.203C208.668 194.302 209.175 195.456 210.075 196.102C210.975 196.748 212.231 196.851 213.228 196.374C212.757 198.083 214.242 200.027 216.012 200.033C216.03 201.857 216.042 203.681 216.06 205.505L218.433 203.192C219.333 200.287 219.997 197.304 220.426 194.29Z" fill="#EBEBEB"/>
<path d="M251.123 211.9C252.808 210.958 254.595 210.082 256.516 209.889C259.39 209.599 262.162 210.843 264.82 211.979C270.587 214.449 276.517 216.55 282.556 218.253C283.728 218.585 283.909 220.162 282.852 220.766C281.675 221.436 280.461 222.022 279.168 222.414C276.849 223.121 274.222 223.151 272.121 221.943C272.767 222.541 273.443 223.187 273.516 224.129C273.552 224.606 273.359 225.089 272.96 225.349C272.296 225.784 271.517 225.391 270.877 225.011C269.615 224.262 268.352 223.507 267.096 222.758C267.803 223.652 267.604 225.077 266.758 225.844C265.913 226.611 264.584 226.708 263.57 226.195C262.676 225.742 262.03 224.878 261.734 223.918C261.824 224.739 261.202 225.609 260.381 225.85C259.427 226.128 258.37 225.699 257.675 224.987C256.987 224.268 256.606 223.314 256.335 222.354C255.356 222.873 254.1 222.813 253.17 222.209C252.246 221.599 251.691 220.47 251.781 219.364C250.356 220.415 248.007 219.739 247.361 218.084C245.652 218.724 243.943 219.37 242.24 220.011L243.544 216.967C245.935 215.083 248.472 213.386 251.129 211.9H251.123Z" fill="#EBEBEB"/>
<path d="M244.14 219.18C249.924 211.822 248.648 201.169 241.29 195.385C233.933 189.602 223.28 190.878 217.496 198.235C211.712 205.593 212.988 216.246 220.346 222.03C227.703 227.814 238.357 226.538 244.14 219.18Z" fill="#E0E0E0"/>
<path d="M250.463 206.45C250.714 197.095 243.334 189.307 233.979 189.055C224.623 188.804 216.835 196.184 216.584 205.54C216.332 214.895 223.712 222.683 233.068 222.935C242.423 223.186 250.211 215.806 250.463 206.45Z" fill="#EBEBEB"/>
<path d="M239.311 220.456C247.288 217.254 251.159 208.192 247.957 200.216C244.755 192.24 235.694 188.369 227.717 191.57C219.741 194.772 215.87 203.834 219.072 211.81C222.273 219.787 231.335 223.657 239.311 220.456Z" fill="#FAFAFA"/>
<path d="M240.494 194.012L239.516 195.589L239.22 195.407L240.047 194.073L239.715 193.867L239.866 193.62L240.494 194.006V194.012Z" fill="#E0E0E0"/>
<path d="M241.128 196.253L240.971 196.501L239.806 195.776L239.927 195.583L240.923 195.377C241.038 195.353 241.122 195.323 241.177 195.287C241.231 195.251 241.273 195.208 241.31 195.16C241.358 195.087 241.364 195.015 241.34 194.943C241.316 194.87 241.255 194.81 241.159 194.749C240.996 194.647 240.839 194.628 240.688 194.683L240.579 194.399C240.694 194.357 240.814 194.345 240.947 194.363C241.08 194.381 241.213 194.429 241.34 194.514C241.509 194.622 241.624 194.743 241.678 194.888C241.726 195.033 241.714 195.178 241.624 195.317C241.569 195.401 241.503 195.474 241.418 195.522C241.334 195.577 241.213 195.619 241.05 195.649L240.38 195.788L241.122 196.247L241.128 196.253Z" fill="#E0E0E0"/>
<path d="M226.955 216.828C227.015 216.919 227.039 217.015 227.045 217.118C227.045 217.221 227.015 217.317 226.955 217.414C226.894 217.516 226.81 217.589 226.713 217.637C226.616 217.686 226.508 217.698 226.393 217.686C226.278 217.673 226.17 217.631 226.061 217.565C225.843 217.432 225.717 217.257 225.68 217.051C225.644 216.84 225.705 216.611 225.862 216.357C225.97 216.182 226.097 216.049 226.242 215.964C226.387 215.88 226.532 215.838 226.689 215.844C226.846 215.85 227.003 215.904 227.154 215.995C227.232 216.043 227.305 216.103 227.365 216.164C227.426 216.224 227.474 216.29 227.504 216.357L227.257 216.514C227.208 216.411 227.124 216.327 227.003 216.248C226.852 216.152 226.701 216.127 226.562 216.164C226.417 216.206 226.29 216.315 226.182 216.49C226.26 216.466 226.345 216.466 226.435 216.478C226.526 216.496 226.616 216.532 226.707 216.586C226.81 216.653 226.894 216.725 226.949 216.822L226.955 216.828ZM226.453 217.396C226.538 217.384 226.61 217.335 226.659 217.257C226.713 217.172 226.719 217.094 226.695 217.009C226.665 216.925 226.604 216.852 226.508 216.792C226.411 216.731 226.32 216.707 226.23 216.725C226.139 216.737 226.067 216.786 226.019 216.864C225.97 216.943 225.958 217.021 225.988 217.106C226.012 217.19 226.079 217.269 226.182 217.329C226.272 217.384 226.363 217.408 226.453 217.396Z" fill="#E0E0E0"/>
<path d="M245.211 199.592L244.232 201.169L243.937 200.988L244.764 199.653L244.432 199.448L244.583 199.2L245.211 199.586V199.592Z" fill="#E0E0E0"/>
<path d="M233.495 218.743C233.549 218.893 233.531 219.044 233.435 219.195C233.374 219.292 233.302 219.358 233.205 219.407C233.108 219.455 233.006 219.473 232.879 219.461C232.758 219.449 232.631 219.401 232.492 219.316C232.378 219.244 232.281 219.165 232.197 219.063C232.112 218.966 232.052 218.863 232.015 218.761L232.281 218.61C232.311 218.694 232.36 218.773 232.42 218.857C232.486 218.936 232.559 219.002 232.649 219.057C232.752 219.123 232.849 219.153 232.933 219.141C233.018 219.141 233.084 219.093 233.133 219.02C233.181 218.942 233.187 218.857 233.151 218.779C233.114 218.7 233.018 218.61 232.861 218.513L232.48 218.277L233.096 217.468L234.02 218.042L233.869 218.29L233.193 217.867L232.933 218.211L233.084 218.308C233.308 218.447 233.447 218.592 233.495 218.743Z" fill="#E0E0E0"/>
<path d="M233.996 192.629L233.018 194.206L232.728 194.024L233.555 192.69L233.223 192.485L233.374 192.237L234.002 192.623L233.996 192.629Z" fill="#E0E0E0"/>
<path d="M234.86 193.161L233.881 194.737L233.585 194.556L234.413 193.221L234.081 193.016L234.232 192.768L234.86 193.155V193.161Z" fill="#E0E0E0"/>
<path d="M222.618 210.958L221.64 212.534L221.344 212.353L222.172 211.018L221.839 210.813L221.99 210.566L222.618 210.952V210.958Z" fill="#E0E0E0"/>
<path d="M223.476 211.489L222.498 213.066L222.202 212.884L223.029 211.55L222.697 211.345L222.848 211.097L223.476 211.483V211.489Z" fill="#E0E0E0"/>
<path d="M246.231 206.827L246.08 207.075L244.915 206.35L245.036 206.157L246.032 205.952C246.147 205.928 246.231 205.897 246.286 205.861C246.34 205.825 246.382 205.783 246.419 205.734C246.467 205.662 246.473 205.589 246.449 205.517C246.425 205.444 246.364 205.384 246.268 205.324C246.105 205.221 245.947 205.203 245.797 205.257L245.688 204.973C245.803 204.931 245.923 204.919 246.056 204.937C246.189 204.955 246.322 205.004 246.449 205.088C246.618 205.197 246.733 205.318 246.781 205.463C246.835 205.607 246.817 205.746 246.727 205.891C246.672 205.976 246.606 206.048 246.521 206.097C246.437 206.151 246.316 206.193 246.153 206.223L245.482 206.362L246.225 206.827H246.231Z" fill="#E0E0E0"/>
<path d="M239.842 217.812L239.564 217.637L239.341 217.994L239.057 217.818L239.28 217.462L238.417 216.925L238.544 216.719L239.951 216.188L240.265 216.381L238.93 216.9L239.443 217.221L239.643 216.9L239.92 217.07L239.721 217.39L239.999 217.565L239.848 217.812H239.842Z" fill="#E0E0E0"/>
<path d="M228.319 193.855L227.341 195.432L227.045 195.25L227.873 193.916L227.54 193.71L227.691 193.463L228.319 193.849V193.855Z" fill="#E0E0E0"/>
<path d="M228.018 195.758C227.957 195.631 227.939 195.492 227.957 195.335C227.975 195.178 228.036 195.015 228.144 194.846C228.247 194.677 228.368 194.55 228.501 194.465C228.634 194.381 228.772 194.332 228.911 194.332C229.05 194.332 229.183 194.369 229.31 194.447C229.437 194.526 229.527 194.628 229.588 194.755C229.648 194.882 229.666 195.021 229.648 195.178C229.63 195.335 229.57 195.498 229.461 195.667C229.358 195.836 229.237 195.963 229.105 196.048C228.972 196.138 228.833 196.18 228.694 196.18C228.555 196.18 228.422 196.144 228.295 196.066C228.169 195.987 228.078 195.884 228.018 195.758ZM228.809 195.836C228.929 195.782 229.05 195.667 229.165 195.48C229.28 195.293 229.334 195.136 229.328 195.003C229.322 194.87 229.262 194.767 229.147 194.695C229.038 194.628 228.917 194.616 228.797 194.671C228.676 194.725 228.555 194.84 228.44 195.027C228.326 195.214 228.271 195.371 228.277 195.504C228.283 195.637 228.344 195.74 228.452 195.806C228.567 195.878 228.682 195.885 228.809 195.83V195.836Z" fill="#E0E0E0"/>
<path d="M221.67 206.054C221.67 206.145 221.652 206.235 221.598 206.32C221.538 206.417 221.459 206.483 221.362 206.525C221.266 206.562 221.157 206.574 221.03 206.55C220.909 206.525 220.783 206.477 220.656 206.399C220.529 206.32 220.426 206.229 220.354 206.133C220.281 206.036 220.239 205.934 220.233 205.825C220.227 205.722 220.251 205.62 220.312 205.523C220.366 205.438 220.432 205.378 220.517 205.342C220.601 205.305 220.692 205.293 220.801 205.305C220.758 205.233 220.74 205.155 220.74 205.076C220.74 204.997 220.765 204.925 220.813 204.847C220.867 204.756 220.94 204.696 221.03 204.659C221.121 204.623 221.223 204.617 221.332 204.635C221.441 204.653 221.556 204.702 221.67 204.774C221.785 204.847 221.882 204.931 221.948 205.022C222.015 205.112 222.051 205.209 222.063 205.305C222.069 205.402 222.045 205.493 221.99 205.583C221.942 205.656 221.888 205.71 221.815 205.746C221.749 205.783 221.67 205.795 221.58 205.795C221.64 205.885 221.67 205.976 221.676 206.066L221.67 206.054ZM221.266 204.925C221.187 204.925 221.127 204.967 221.085 205.04C221.042 205.106 221.036 205.179 221.066 205.251C221.097 205.324 221.157 205.39 221.248 205.444C221.338 205.505 221.429 205.529 221.507 205.523C221.586 205.517 221.646 205.481 221.688 205.414C221.731 205.342 221.737 205.269 221.707 205.197C221.676 205.124 221.616 205.058 221.525 205.004C221.435 204.949 221.35 204.919 221.272 204.925H221.266ZM221.097 206.26C221.187 206.26 221.26 206.211 221.308 206.133C221.356 206.054 221.362 205.976 221.326 205.891C221.29 205.807 221.217 205.728 221.109 205.662C221 205.595 220.903 205.565 220.813 205.571C220.722 205.577 220.656 205.62 220.607 205.698C220.559 205.777 220.547 205.861 220.583 205.94C220.62 206.024 220.686 206.097 220.795 206.163C220.903 206.229 221 206.26 221.091 206.254L221.097 206.26Z" fill="#E0E0E0"/>
<path d="M244.534 212.637C244.558 212.764 244.534 212.891 244.462 213.011C244.407 213.102 244.329 213.174 244.238 213.217C244.148 213.265 244.039 213.277 243.918 213.265C243.797 213.253 243.671 213.205 243.532 213.12C243.417 213.048 243.32 212.969 243.236 212.866C243.151 212.77 243.091 212.667 243.055 212.564L243.32 212.413C243.351 212.498 243.393 212.576 243.459 212.655C243.526 212.733 243.598 212.8 243.689 212.854C243.791 212.921 243.888 212.951 243.973 212.945C244.057 212.939 244.124 212.897 244.172 212.824C244.22 212.752 244.226 212.673 244.196 212.601C244.166 212.522 244.093 212.45 243.979 212.377L243.834 212.287L243.961 212.087L244.583 211.882L243.864 211.435L244.015 211.188L245.09 211.858L244.969 212.051L244.305 212.268C244.438 212.377 244.522 212.498 244.546 212.625L244.534 212.637Z" fill="#E0E0E0"/>
<path d="M223.718 198.856C223.754 199.067 223.693 199.297 223.536 199.55C223.428 199.725 223.301 199.858 223.156 199.943C223.011 200.027 222.866 200.07 222.709 200.058C222.552 200.051 222.395 199.997 222.244 199.907C222.166 199.858 222.093 199.798 222.033 199.737C221.972 199.677 221.924 199.611 221.894 199.544L222.141 199.393C222.19 199.49 222.274 199.58 222.395 199.659C222.546 199.756 222.697 199.78 222.836 199.737C222.981 199.695 223.108 199.593 223.216 199.411C223.138 199.435 223.053 199.435 222.963 199.423C222.872 199.405 222.782 199.369 222.691 199.315C222.588 199.248 222.504 199.17 222.449 199.079C222.389 198.989 222.359 198.892 222.359 198.789C222.359 198.687 222.389 198.59 222.449 198.493C222.516 198.391 222.594 198.318 222.691 198.27C222.788 198.222 222.896 198.21 223.011 198.222C223.126 198.234 223.234 198.276 223.343 198.342C223.561 198.475 223.687 198.65 223.724 198.856H223.718ZM223.162 199.188C223.253 199.176 223.325 199.128 223.373 199.049C223.422 198.97 223.434 198.892 223.404 198.801C223.379 198.717 223.313 198.638 223.21 198.578C223.12 198.524 223.029 198.499 222.945 198.512C222.854 198.524 222.788 198.572 222.739 198.656C222.685 198.741 222.679 198.82 222.703 198.904C222.727 198.989 222.794 199.061 222.89 199.121C222.987 199.182 223.077 199.2 223.168 199.188H223.162Z" fill="#E0E0E0"/>
<path d="M233.217 205.855L238.833 197.455L239.238 197.708L234.395 206.586L233.217 205.855Z" fill="#E0E0E0"/>
<path d="M232.933 206.477L231.405 199.997L231.87 199.864L234.268 206.084L232.933 206.477Z" fill="#E0E0E0"/>
<path d="M229.98 206.386L242.638 206.882L230.004 206.791L229.98 206.386Z" fill="#E6E6E6"/>
<path d="M235.047 206.99C234.624 207.673 233.718 207.884 233.036 207.461C232.354 207.039 232.142 206.133 232.565 205.45C232.988 204.768 233.894 204.557 234.576 204.979C235.264 205.402 235.47 206.308 235.047 206.99Z" fill="#E0E0E0"/>
<path d="M215.879 212.462C215.879 212.462 210.788 215.475 211.531 216.025C212.274 216.574 216.954 215.101 216.954 215.101C216.954 215.101 217.636 213.356 215.873 212.456L215.879 212.462Z" fill="#EBEBEB"/>
<path d="M235.723 224.184C235.723 224.184 235.276 230.084 234.455 229.661C233.634 229.238 232.873 224.389 232.873 224.389C232.873 224.389 234.135 223.006 235.723 224.184Z" fill="#EBEBEB"/>
<path d="M222.655 188.867C222.806 188.819 238.121 186.029 238.121 186.029C238.121 186.029 236.382 180.449 229.268 182.085C222.154 183.728 222.655 188.861 222.655 188.861V188.867Z" fill="#F0F0F0"/>
<path d="M238.121 186.029C238.248 186.705 234.836 187.744 230.578 188.541C226.326 189.344 222.769 189.441 222.643 188.77C222.516 188.094 225.861 186.898 230.113 186.095C234.364 185.292 237.988 185.352 238.115 186.029H238.121Z" fill="#E0E0E0"/>
<path d="M230.937 183.48L228.646 183.911L229.749 189.769L232.039 189.338L230.937 183.48Z" fill="#F0F0F0"/>
<path d="M230.989 183.396C230.505 184.175 229.479 184.416 228.694 183.933C227.915 183.45 227.673 182.423 228.156 181.638C228.639 180.859 229.666 180.618 230.451 181.101C231.236 181.584 231.472 182.611 230.989 183.396Z" fill="#F0F0F0"/>
<g opacity="0.4">
<path d="M229.183 182.212L227.915 182.466C227.715 182.532 224.013 184.102 224.02 187.75C225.167 187.291 226.417 186.917 227.734 186.603C227.311 185.389 227.124 183.517 229.183 182.212Z" fill="white"/>
</g>
<path d="M229.098 186.301L231.393 185.878L231.502 186.439L229.231 186.989L229.098 186.301Z" fill="#E0E0E0"/>
<path d="M227.915 182.472L231.085 181.819L230.983 181.632L227.939 182.23L227.915 182.472Z" fill="#E0E0E0"/>
<path d="M247.034 190.926C247.125 191.053 254.239 204.901 254.239 204.901C254.239 204.901 259.076 201.616 255.441 195.287C251.805 188.958 247.034 190.926 247.034 190.926Z" fill="#F0F0F0"/>
<path d="M254.239 204.901C253.629 205.221 251.642 202.25 249.643 198.415C247.638 194.58 246.509 191.21 247.119 190.89C247.729 190.57 249.849 193.427 251.848 197.261C253.853 201.096 254.849 204.581 254.239 204.901Z" fill="#E0E0E0"/>
<path d="M254.585 197.282L253.507 195.216L248.222 197.972L249.3 200.039L254.585 197.282Z" fill="#F0F0F0"/>
<path d="M254.686 197.316C253.798 197.08 253.273 196.168 253.508 195.281C253.744 194.393 254.656 193.867 255.544 194.103C256.431 194.338 256.957 195.25 256.721 196.138C256.486 197.026 255.574 197.551 254.686 197.316Z" fill="#F0F0F0"/>
<g opacity="0.4">
<path d="M255.296 195.238L254.68 194.097C254.553 193.928 251.981 190.842 248.49 191.905C249.263 192.865 249.982 193.958 250.67 195.124C251.709 194.363 253.448 193.638 255.296 195.232V195.238Z" fill="white"/>
</g>
<path d="M251.365 196.344L252.434 198.421L251.926 198.687L250.737 196.676L251.365 196.344Z" fill="#E0E0E0"/>
<path d="M254.68 194.097L256.226 196.947L256.377 196.79L254.915 194.055L254.68 194.097Z" fill="#E0E0E0"/>
<path d="M229.702 189.489C229.702 189.489 231.387 189.199 232.009 189.139L231.967 188.903L229.666 189.278L229.709 189.489H229.702Z" fill="#E0E0E0"/>
<path d="M206.337 179.017C206.337 179.017 214.152 185.473 215.166 187.847C216.181 190.22 216.767 197.425 216.767 197.425C216.767 197.425 215.221 189.906 214.115 187.69C213.004 185.473 206.337 179.017 206.337 179.017Z" fill="#E0E0E0"/>
<path d="M208.366 183.535C208.366 183.535 206.059 185.503 208.046 186.639C210.033 187.78 211.343 187.412 211.343 187.412C211.343 187.412 209.399 189.326 210.891 190.202C212.382 191.077 213.97 190.794 213.97 190.794C213.97 190.794 210.734 191.283 209.979 190.226C209.218 189.169 210.564 187.967 210.564 187.967C210.564 187.967 207.448 187.641 206.965 186.216C206.482 184.785 206.905 184.531 208.372 183.535H208.366Z" fill="#E0E0E0"/>
<path d="M270.038 217.927C270.038 217.927 260.786 213.784 258.207 213.929C255.628 214.074 248.913 216.743 248.913 216.743C248.913 216.743 256.335 214.793 258.817 214.805C261.299 214.817 270.038 217.933 270.038 217.933V217.927Z" fill="#E0E0E0"/>
<path d="M265.085 218.114C265.085 218.114 264.342 221.055 262.446 219.781C260.544 218.507 260.29 217.166 260.29 217.166C260.29 217.166 259.439 219.757 257.995 218.809C256.552 217.867 256.099 216.309 256.099 216.309C256.099 216.309 257.096 219.425 258.382 219.636C259.668 219.847 260.145 218.114 260.145 218.114C260.145 218.114 261.818 220.765 263.316 220.566C264.813 220.367 264.85 219.872 265.097 218.114H265.085Z" fill="#E0E0E0"/>
<path d="M279.845 258.848C279.845 260.895 223.367 262.55 153.707 262.55C84.0458 262.55 27.5684 260.889 27.5684 258.848C27.5684 256.807 84.0458 255.146 153.707 255.146C223.367 255.146 279.845 256.807 279.845 258.848Z" fill="#F5F5F5"/>
<path d="M64.8354 178.589C64.7569 178.589 64.6784 178.558 64.618 178.498C64.5033 178.377 64.5033 178.19 64.618 178.069C68.0724 174.706 70.3129 172.556 72.5534 170.4C74.7878 168.25 77.0283 166.106 80.4766 162.742C80.5974 162.627 80.7846 162.627 80.9054 162.742C81.0202 162.863 81.0202 163.05 80.9054 163.171C77.4571 166.529 75.2166 168.679 72.9822 170.828C70.7417 172.978 68.5012 175.128 65.0529 178.492C64.9925 178.546 64.92 178.577 64.8415 178.577L64.8354 178.589Z" fill="#263238"/>
<path d="M60.1914 182.725C60.1129 182.725 60.0344 182.695 59.974 182.635C59.8593 182.514 59.8593 182.327 59.974 182.206L62.7822 179.47C62.9029 179.356 63.0902 179.356 63.2109 179.47C63.3257 179.591 63.3257 179.778 63.2109 179.899L60.4028 182.635C60.3424 182.689 60.2699 182.719 60.1914 182.719V182.725Z" fill="#263238"/>
<path d="M58.3737 205.136C58.3013 205.136 58.2228 205.106 58.1624 205.052C58.0416 204.937 58.0355 204.744 58.1503 204.623L88.6778 172.713C88.7926 172.592 88.9858 172.586 89.1066 172.7C89.2274 172.815 89.2334 173.008 89.1187 173.129L58.5911 205.04C58.5307 205.1 58.4522 205.13 58.3737 205.13V205.136Z" fill="#263238"/>
<path d="M82.3486 197.455C82.2762 197.455 82.1977 197.431 82.1433 197.37C82.0225 197.255 82.0165 197.062 82.1312 196.941C84.722 194.188 86.5096 192.231 88.2367 190.341C89.9639 188.45 91.7515 186.494 94.3483 183.734C94.463 183.613 94.6563 183.607 94.7771 183.722C94.8978 183.837 94.9039 184.03 94.7891 184.151C92.1984 186.904 90.4108 188.861 88.6836 190.751C86.9565 192.642 85.1689 194.598 82.5721 197.358C82.5117 197.418 82.4332 197.455 82.3547 197.455H82.3486Z" fill="#263238"/>
<path d="M96.2387 182.393C96.1663 182.393 96.0938 182.369 96.0395 182.315C95.9126 182.206 95.9006 182.013 96.0153 181.886L98.4188 179.18C98.5276 179.054 98.7208 179.048 98.8476 179.156C98.9744 179.265 98.9865 179.458 98.8718 179.585L96.4682 182.291C96.4078 182.357 96.3233 182.393 96.2448 182.393H96.2387Z" fill="#263238"/>
<path d="M97.3986 125.052C95.1098 119.84 92.4647 114.629 88.2977 110.758C82.0654 104.978 73.3329 102.973 65.0775 100.938C47.1354 96.5115 29.4832 90.9254 12.2597 84.222C8.92011 82.9236 5.68317 86.3055 7.10839 89.5968C8.69063 93.2565 10.5084 96.7893 12.8455 100.014C17.0306 105.788 23.1663 110.528 30.2441 111.41C27.6594 111.67 24.9237 111.984 23.0817 114.067C22.1457 115.124 21.7531 116.598 22.2242 117.926C23.0093 120.13 25.5396 120.589 27.7137 120.831C32.0075 121.302 36.3073 121.773 40.6011 122.244C37.3581 123.096 35.3048 126.798 35.9269 130.089C36.5489 133.38 39.508 135.977 42.7993 136.581C45.7041 137.112 48.7539 136.225 51.1574 134.491C49.4846 136.261 49.4 139.413 50.9038 141.436C52.6491 143.785 55.8981 144.655 58.7908 144.196C61.6835 143.737 64.2803 142.161 66.6174 140.398C67.9943 143.351 71.0562 145.446 74.3112 145.658C77.5663 145.869 80.8757 144.184 82.621 141.436C84.1006 146.437 90.8341 149.009 95.2728 146.267C98.1474 150.809 101.022 155.344 103.891 159.886L106.234 150.422C103.963 141.75 101.01 133.265 97.4046 125.058L97.3986 125.052Z" fill="#263238"/>
<g opacity="0.8">
<path d="M97.3986 125.052C95.1098 119.84 92.4647 114.629 88.2977 110.758C82.0654 104.978 73.3329 102.973 65.0775 100.938C47.1354 96.5115 29.4832 90.9254 12.2597 84.222C8.92011 82.9236 5.68317 86.3055 7.10839 89.5968C8.69063 93.2565 10.5084 96.7893 12.8455 100.014C17.0306 105.788 23.1663 110.528 30.2441 111.41C27.6594 111.67 24.9237 111.984 23.0817 114.067C22.1457 115.124 21.7531 116.598 22.2242 117.926C23.0093 120.13 25.5396 120.589 27.7137 120.831C32.0075 121.302 36.3073 121.773 40.6011 122.244C37.3581 123.096 35.3048 126.798 35.9269 130.089C36.5489 133.38 39.508 135.977 42.7993 136.581C45.7041 137.112 48.7539 136.225 51.1574 134.491C49.4846 136.261 49.4 139.413 50.9038 141.436C52.6491 143.785 55.8981 144.655 58.7908 144.196C61.6835 143.737 64.2803 142.161 66.6174 140.398C67.9943 143.351 71.0562 145.446 74.3112 145.658C77.5663 145.869 80.8757 144.184 82.621 141.436C84.1006 146.437 90.8341 149.009 95.2728 146.267C98.1474 150.809 101.022 155.344 103.891 159.886L106.234 150.422C103.963 141.75 101.01 133.265 97.4046 125.058L97.3986 125.052Z" fill="white"/>
</g>
<path d="M201.542 121.411C204.296 116.428 207.4 111.476 211.905 108.004C218.639 102.81 227.516 101.609 235.923 100.334C254.191 97.5563 272.278 93.5947 290.039 88.4796C293.481 87.4892 296.398 91.1489 294.683 94.2952C292.775 97.7979 290.643 101.15 288.028 104.151C283.336 109.52 276.795 113.681 269.663 113.916C272.212 114.411 274.911 114.973 276.554 117.214C277.387 118.349 277.647 119.859 277.061 121.139C276.083 123.265 273.522 123.494 271.336 123.53C267.012 123.609 262.694 123.687 258.37 123.766C261.522 124.907 263.231 128.784 262.313 132.003C261.396 135.222 258.213 137.541 254.879 137.843C251.938 138.109 248.985 136.949 246.751 134.999C248.255 136.913 248.055 140.059 246.37 141.937C244.42 144.124 241.104 144.691 238.26 143.973C235.421 143.254 232.982 141.448 230.814 139.48C229.177 142.3 225.934 144.106 222.673 144.021C219.412 143.936 216.272 141.962 214.78 139.063C212.847 143.912 205.915 145.857 201.742 142.729C198.468 146.986 195.195 151.25 191.922 155.507L190.448 145.869C193.498 137.444 197.212 129.255 201.548 121.411H201.542Z" fill="#263238"/>
<g opacity="0.8">
<path d="M201.542 121.411C204.296 116.428 207.4 111.476 211.905 108.004C218.639 102.81 227.516 101.609 235.923 100.334C254.191 97.5563 272.278 93.5947 290.039 88.4796C293.481 87.4892 296.398 91.1489 294.683 94.2952C292.775 97.7979 290.643 101.15 288.028 104.151C283.336 109.52 276.795 113.681 269.663 113.916C272.212 114.411 274.911 114.973 276.554 117.214C277.387 118.349 277.647 119.859 277.061 121.139C276.083 123.265 273.522 123.494 271.336 123.53C267.012 123.609 262.694 123.687 258.37 123.766C261.522 124.907 263.231 128.784 262.313 132.003C261.396 135.222 258.213 137.541 254.879 137.843C251.938 138.109 248.985 136.949 246.751 134.999C248.255 136.913 248.055 140.059 246.37 141.937C244.42 144.124 241.104 144.691 238.26 143.973C235.421 143.254 232.982 141.448 230.814 139.48C229.177 142.3 225.934 144.106 222.673 144.021C219.412 143.936 216.272 141.962 214.78 139.063C212.847 143.912 205.915 145.857 201.742 142.729C198.468 146.986 195.195 151.25 191.922 155.507L190.448 145.869C193.498 137.444 197.212 129.255 201.548 121.411H201.542Z" fill="white"/>
</g>
<path d="M194.968 153.128C199.498 125.947 181.134 100.24 153.953 95.7111C126.771 91.182 101.065 109.545 96.5359 136.727C92.0068 163.908 110.37 189.615 137.552 194.144C164.733 198.673 190.439 180.309 194.968 153.128Z" fill="#407BFF"/>
<path opacity="0.3" d="M194.968 153.128C199.498 125.947 181.134 100.24 153.953 95.7111C126.771 91.182 101.065 109.545 96.5359 136.727C92.0068 163.908 110.37 189.615 137.552 194.144C164.733 198.673 190.439 180.309 194.968 153.128Z" fill="black"/>
<path d="M197.538 142.198C202.067 115.017 183.704 89.3102 156.522 84.7811C129.341 80.252 103.635 98.6153 99.1055 125.797C94.5763 152.978 112.94 178.685 140.121 183.214C167.303 187.743 193.009 169.379 197.538 142.198Z" fill="#407BFF"/>
<path d="M180.727 166.406C198.623 148.511 198.623 119.496 180.727 101.601C162.832 83.7053 133.817 83.7053 115.922 101.601C98.026 119.496 98.026 148.511 115.922 166.406C133.817 184.302 162.832 184.302 180.727 166.406Z" fill="#407BFF"/>
<path opacity="0.7" d="M180.727 166.406C198.623 148.511 198.623 119.496 180.727 101.601C162.832 83.7053 133.817 83.7053 115.922 101.601C98.026 119.496 98.026 148.511 115.922 166.406C133.817 184.302 162.832 184.302 180.727 166.406Z" fill="white"/>
<path opacity="0.4" d="M165.036 91.3179L104.718 148.115C104.718 148.115 108.873 158.623 112.653 162.766L177.477 98.6433C177.477 98.6433 171.939 93.6973 165.036 91.324V91.3179Z" fill="white"/>
<path opacity="0.4" d="M183.383 104.815L115.872 166.353C115.872 166.353 116.929 168.038 121.796 171.185L188.444 111.724C188.444 111.724 187.671 109.32 183.383 104.809V104.815Z" fill="white"/>
<path d="M147.191 93.1537V98.6252H146.176V94.0053H145.023V93.1537H147.197H147.191Z" fill="#263238"/>
<path d="M152.239 97.7676V98.6251H148.205V97.9427L150.379 95.8773C150.627 95.6418 150.79 95.4365 150.874 95.2613C150.959 95.0862 151.001 94.9111 151.001 94.742C151.001 94.4883 150.917 94.289 150.742 94.1562C150.566 94.0233 150.319 93.9509 149.981 93.9509C149.425 93.9509 148.996 94.1381 148.7 94.5185L147.988 93.969C148.199 93.6851 148.489 93.4617 148.851 93.2986C149.214 93.1416 149.618 93.0631 150.065 93.0631C150.657 93.0631 151.134 93.202 151.49 93.4858C151.847 93.7697 152.022 94.1501 152.022 94.6333C152.022 94.9292 151.962 95.207 151.835 95.4667C151.708 95.7263 151.472 96.0223 151.116 96.3544L149.655 97.7434H152.233L152.239 97.7676Z" fill="#263238"/>
<path d="M148.755 171.263C149.039 171.402 149.262 171.595 149.425 171.855C149.588 172.109 149.667 172.405 149.667 172.737C149.667 173.093 149.576 173.401 149.401 173.673C149.226 173.939 148.984 174.15 148.682 174.295C148.38 174.44 148.042 174.512 147.668 174.512C146.919 174.512 146.333 174.277 145.923 173.806C145.506 173.335 145.301 172.664 145.301 171.789C145.301 171.173 145.415 170.647 145.639 170.212C145.862 169.778 146.176 169.445 146.581 169.222C146.985 168.993 147.45 168.884 147.982 168.884C148.266 168.884 148.525 168.914 148.773 168.974C149.021 169.035 149.238 169.119 149.419 169.234L149.045 170.001C148.773 169.826 148.429 169.735 148.006 169.735C147.481 169.735 147.07 169.898 146.774 170.218C146.478 170.545 146.327 171.01 146.327 171.619C146.49 171.438 146.696 171.299 146.943 171.203C147.191 171.106 147.475 171.058 147.789 171.058C148.151 171.058 148.471 171.124 148.761 171.263H148.755ZM148.387 173.461C148.586 173.292 148.682 173.069 148.682 172.785C148.682 172.501 148.586 172.272 148.387 172.103C148.187 171.934 147.921 171.855 147.589 171.855C147.257 171.855 146.991 171.946 146.786 172.121C146.581 172.296 146.478 172.525 146.478 172.791C146.478 173.057 146.581 173.274 146.78 173.449C146.979 173.624 147.257 173.709 147.613 173.709C147.934 173.709 148.187 173.624 148.387 173.455V173.461Z" fill="#263238"/>
<path d="M167.651 99.7786V105.25H166.637V100.63H165.477V99.7786H167.651Z" fill="#263238"/>
<path d="M168.092 165.882C168.46 166.184 168.648 166.589 168.648 167.108C168.648 167.434 168.569 167.736 168.406 168.002C168.243 168.268 168.001 168.479 167.681 168.636C167.355 168.793 166.957 168.872 166.486 168.872C166.093 168.872 165.719 168.817 165.35 168.703C164.988 168.588 164.68 168.437 164.426 168.238L164.855 167.446C165.06 167.616 165.302 167.742 165.586 167.839C165.87 167.936 166.166 167.984 166.467 167.984C166.83 167.984 167.108 167.911 167.313 167.761C167.518 167.61 167.621 167.41 167.621 167.145C167.621 166.861 167.512 166.649 167.289 166.51C167.065 166.365 166.691 166.293 166.153 166.293H164.831L165.115 163.316H168.328V164.167H165.972L165.858 165.435H166.383C167.156 165.435 167.724 165.586 168.092 165.882Z" fill="#263238"/>
<path d="M128.784 99.7786V105.25H127.769V100.63H126.616V99.7786H128.79H128.784Z" fill="#263238"/>
<path d="M131.761 99.7787V105.25H130.746V100.63H129.587V99.7787H131.761Z" fill="#263238"/>
<path d="M128.784 163.316V168.787H127.769V164.167H126.616V163.316H128.79H128.784Z" fill="#263238"/>
<path d="M131.761 163.316V168.787H130.746V164.167H129.587V163.316H131.761Z" fill="#263238"/>
<path d="M181.444 116.295V117.153H177.41V116.471L179.584 114.405C179.832 114.17 179.995 113.964 180.08 113.789C180.164 113.614 180.206 113.439 180.206 113.27C180.206 113.016 180.122 112.817 179.947 112.684C179.772 112.551 179.524 112.479 179.186 112.479C178.63 112.479 178.201 112.666 177.905 113.046L177.193 112.497C177.404 112.213 177.694 111.99 178.056 111.827C178.419 111.67 178.823 111.591 179.27 111.591C179.862 111.591 180.339 111.73 180.696 112.014C181.052 112.298 181.227 112.678 181.227 113.161C181.227 113.457 181.167 113.735 181.04 113.995C180.913 114.254 180.677 114.55 180.321 114.882L178.86 116.271H181.438L181.444 116.295Z" fill="#263238"/>
<path d="M182.525 153.708H181.559V154.952H180.575V153.708H177.573V153.001L180.267 149.474H181.354L178.811 152.844H180.599V151.745H181.553V152.844H182.519V153.702L182.525 153.708Z" fill="#263238"/>
<path d="M116.476 111.682V117.153H115.462V112.533H114.302V111.682H116.476Z" fill="#263238"/>
<path d="M118.674 116.899C118.33 116.676 118.058 116.356 117.859 115.933C117.66 115.51 117.563 115.003 117.563 114.423C117.563 113.844 117.66 113.336 117.859 112.914C118.058 112.491 118.33 112.165 118.674 111.941C119.018 111.718 119.411 111.609 119.846 111.609C120.281 111.609 120.673 111.718 121.023 111.941C121.368 112.165 121.639 112.485 121.839 112.914C122.038 113.336 122.135 113.844 122.135 114.423C122.135 115.003 122.038 115.51 121.839 115.933C121.639 116.356 121.368 116.682 121.023 116.899C120.679 117.123 120.287 117.232 119.846 117.232C119.405 117.232 119.018 117.123 118.674 116.899ZM120.77 115.867C120.993 115.547 121.108 115.064 121.108 114.423C121.108 113.783 120.993 113.3 120.77 112.98C120.546 112.654 120.232 112.497 119.846 112.497C119.459 112.497 119.151 112.66 118.928 112.98C118.698 113.306 118.59 113.783 118.59 114.423C118.59 115.064 118.704 115.547 118.928 115.867C119.151 116.193 119.459 116.35 119.846 116.35C120.232 116.35 120.546 116.187 120.77 115.867Z" fill="#263238"/>
<path d="M118.795 152.518C118.946 152.741 119.024 153.001 119.024 153.297C119.024 153.629 118.934 153.925 118.747 154.173C118.559 154.42 118.3 154.613 117.961 154.746C117.623 154.879 117.231 154.946 116.784 154.946C116.337 154.946 115.944 154.879 115.606 154.746C115.268 154.613 115.008 154.42 114.827 154.173C114.646 153.925 114.555 153.629 114.555 153.297C114.555 153.001 114.628 152.741 114.785 152.518C114.936 152.294 115.153 152.119 115.431 151.993C115.214 151.872 115.045 151.715 114.93 151.521C114.815 151.328 114.755 151.099 114.755 150.845C114.755 150.537 114.839 150.271 115.008 150.042C115.177 149.812 115.419 149.637 115.721 149.51C116.029 149.384 116.385 149.323 116.784 149.323C117.182 149.323 117.545 149.384 117.853 149.51C118.161 149.637 118.402 149.812 118.571 150.042C118.74 150.271 118.831 150.537 118.831 150.845C118.831 151.099 118.771 151.322 118.65 151.515C118.529 151.709 118.36 151.866 118.137 151.993C118.42 152.125 118.644 152.301 118.795 152.518ZM117.672 153.913C117.889 153.756 117.998 153.539 117.998 153.267C117.998 152.995 117.889 152.784 117.672 152.627C117.454 152.47 117.158 152.391 116.778 152.391C116.397 152.391 116.107 152.47 115.896 152.627C115.685 152.784 115.576 152.995 115.576 153.267C115.576 153.539 115.685 153.762 115.896 153.913C116.107 154.07 116.403 154.148 116.778 154.148C117.152 154.148 117.448 154.07 117.672 153.913ZM116.029 150.32C115.842 150.453 115.751 150.646 115.751 150.893C115.751 151.141 115.842 151.316 116.029 151.449C116.216 151.588 116.464 151.654 116.784 151.654C117.104 151.654 117.364 151.588 117.551 151.449C117.738 151.31 117.835 151.123 117.835 150.893C117.835 150.664 117.738 150.459 117.551 150.32C117.358 150.187 117.104 150.114 116.79 150.114C116.476 150.114 116.222 150.181 116.035 150.32H116.029Z" fill="#263238"/>
<path d="M186.221 133.477C186.487 133.761 186.62 134.111 186.62 134.534C186.62 134.854 186.541 135.137 186.378 135.403C186.215 135.663 185.974 135.868 185.648 136.025C185.321 136.176 184.923 136.255 184.458 136.255C184.065 136.255 183.691 136.2 183.329 136.086C182.966 135.971 182.658 135.82 182.405 135.621L182.839 134.829C183.039 134.999 183.28 135.125 183.564 135.222C183.848 135.319 184.144 135.367 184.446 135.367C184.808 135.367 185.086 135.294 185.291 135.143C185.497 134.993 185.599 134.793 185.599 134.54C185.599 134.286 185.503 134.087 185.303 133.942C185.11 133.797 184.808 133.724 184.409 133.724H183.908V133.03L185.152 131.55H182.664V130.699H186.39V131.375L185.062 132.951C185.569 133.012 185.956 133.187 186.221 133.465V133.477Z" fill="#263238"/>
<path d="M112.744 131.327C113.16 131.798 113.366 132.468 113.366 133.344C113.366 133.96 113.251 134.485 113.028 134.92C112.804 135.355 112.49 135.687 112.085 135.91C111.681 136.14 111.216 136.249 110.684 136.249C110.401 136.249 110.141 136.218 109.893 136.158C109.646 136.098 109.428 136.013 109.247 135.898L109.622 135.131C109.893 135.307 110.238 135.397 110.66 135.397C111.186 135.397 111.596 135.234 111.892 134.914C112.188 134.594 112.339 134.123 112.339 133.513C112.176 133.694 111.971 133.833 111.723 133.93C111.476 134.026 111.192 134.075 110.878 134.075C110.515 134.075 110.195 134.008 109.911 133.869C109.628 133.73 109.398 133.537 109.241 133.277C109.078 133.024 109 132.728 109 132.396C109 132.039 109.09 131.731 109.265 131.46C109.44 131.194 109.682 130.983 109.984 130.838C110.286 130.693 110.624 130.62 110.998 130.62C111.747 130.62 112.333 130.856 112.744 131.321V131.327ZM111.874 133.012C112.079 132.837 112.182 132.613 112.182 132.341C112.182 132.07 112.079 131.858 111.88 131.683C111.681 131.508 111.403 131.423 111.047 131.423C110.727 131.423 110.473 131.508 110.274 131.677C110.074 131.846 109.978 132.07 109.978 132.353C109.978 132.637 110.074 132.867 110.274 133.036C110.473 133.205 110.739 133.283 111.071 133.283C111.403 133.283 111.669 133.193 111.874 133.018V133.012Z" fill="#263238"/>
<path d="M147.354 134.105L148.362 104.374H149.775L151.448 134.105H147.354Z" fill="#263238"/>
<path d="M147.613 136.098L133.729 122.262L134.672 121.211L150.355 133.054L147.613 136.098Z" fill="#263238"/>
<path d="M140.095 140.464L172.525 122.039L140.777 141.454L140.095 140.464Z" fill="#407BFF"/>
<path d="M153.701 134.105C153.701 136.478 151.774 138.405 149.401 138.405C147.028 138.405 145.101 136.478 145.101 134.105C145.101 131.731 147.028 129.805 149.401 129.805C151.774 129.805 153.701 131.731 153.701 134.105Z" fill="#407BFF"/>
<path opacity="0.3" d="M153.701 134.105C153.701 136.478 151.774 138.405 149.401 138.405C147.028 138.405 145.101 136.478 145.101 134.105C145.101 131.731 147.028 129.805 149.401 129.805C151.774 129.805 153.701 131.731 153.701 134.105Z" fill="black"/>
<path d="M114.241 177.574C114.241 177.574 106.191 193.022 108.909 193.245C111.627 193.469 121.054 182.514 121.054 182.514C121.054 182.514 120.045 177.091 114.248 177.574H114.241Z" fill="#407BFF"/>
<path d="M182.103 176.076C182.103 176.076 190.153 191.524 187.435 191.748C184.718 191.971 175.291 181.016 175.291 181.016C175.291 181.016 176.299 175.593 182.097 176.076H182.103Z" fill="#407BFF"/>
<path d="M94.5481 108.016C94.844 107.66 128.826 76.8967 128.826 76.8967C128.826 76.8967 115.812 65.6278 100.563 80.7858C85.3143 95.9379 94.5481 108.016 94.5481 108.016Z" fill="#407BFF"/>
<path d="M128.826 76.8967C130.197 78.3884 123.264 86.2875 113.861 94.8992C104.464 103.511 95.7377 109.284 94.3668 107.787C92.996 106.295 99.5061 98.0999 108.909 89.4882C118.306 80.8765 127.455 75.399 128.826 76.8907V76.8967Z" fill="#407BFF"/>
<path opacity="0.3" d="M128.826 76.8967C130.197 78.3884 123.264 86.2875 113.861 94.8992C104.464 103.511 95.7377 109.284 94.3668 107.787C92.996 106.295 99.5061 98.0999 108.909 89.4882C118.306 80.8765 127.455 75.399 128.826 76.8907V76.8967Z" fill="black"/>
<path d="M106.903 81.6535L101.841 86.2924L113.697 99.2312L118.759 94.5924L106.903 81.6535Z" fill="#407BFF"/>
<path d="M102 86.2935C104.708 86.2935 106.904 84.0981 106.904 81.3898C106.904 78.6816 104.708 76.4861 102 76.4861C99.2919 76.4861 97.0964 78.6816 97.0964 81.3898C97.0964 84.0981 99.2919 86.2935 102 86.2935Z" fill="#407BFF"/>
<path opacity="0.4" d="M100.539 81.2388L97.7669 83.8477C97.3743 84.3308 90.5562 94.0054 96.239 103.118C98.395 100.189 100.943 97.3148 103.74 94.4765C100.792 92.0971 97.4106 87.7067 100.539 81.2388Z" fill="white"/>
<path opacity="0.2" d="M106.68 91.5838L111.771 86.9699L112.907 88.214L108.081 93.1177L106.68 91.5838Z" fill="black"/>
<path opacity="0.3" d="M97.7667 83.8477L104.693 77.2953L104.138 76.9813L97.4526 83.2136L97.7667 83.8477Z" fill="black"/>
<path d="M166.063 76.4981C166.455 76.7397 201.784 105.951 201.784 105.951C201.784 105.951 211.066 91.4508 193.879 78.5393C176.692 65.6277 166.063 76.4981 166.063 76.4981Z" fill="#407BFF"/>
<path d="M201.784 105.951C200.503 107.521 191.692 101.796 181.818 93.7275C171.945 85.6653 164.982 77.8568 166.262 76.2866C167.542 74.7165 176.583 79.9826 186.457 88.0447C196.33 96.1069 203.064 104.374 201.784 105.945V105.951Z" fill="#407BFF"/>
<path opacity="0.3" d="M201.784 105.951C200.503 107.521 191.692 101.796 181.818 93.7275C171.945 85.6653 164.982 77.8568 166.262 76.2866C167.542 74.7165 176.583 79.9826 186.457 88.0447C196.33 96.1069 203.064 104.374 201.784 105.945V105.951Z" fill="black"/>
<path d="M193.922 84.9388L188.604 80.5953L177.503 94.1875L182.821 98.531L193.922 84.9388Z" fill="#407BFF"/>
<path d="M194.193 84.8984C191.511 85.2849 189.029 83.4309 188.637 80.7495C188.25 78.0682 190.104 75.5861 192.786 75.1936C195.467 74.8071 197.949 76.6611 198.341 79.3424C198.728 82.0238 196.874 84.5058 194.193 84.8984Z" fill="#407BFF"/>
<path opacity="0.4" d="M193.426 78.5815L190.442 76.2142C189.905 75.8941 179.355 70.5375 171.154 77.4703C174.36 79.1794 177.573 81.2931 180.786 83.6543C182.712 80.3932 186.577 76.4195 193.426 78.5815Z" fill="white"/>
<path opacity="0.2" d="M184.071 86.1425L189.367 90.5147L188.304 91.8192L182.76 87.7488L184.071 86.1425Z" fill="black"/>
<path opacity="0.3" d="M190.448 76.2081L197.931 82.1204L198.16 81.5286L191.028 75.8096L190.448 76.2081Z" fill="black"/>
<path opacity="0.3" d="M113.142 98.6252C113.142 98.6252 116.911 95.2796 118.366 94.1624L117.889 93.643L112.714 98.1663L113.136 98.6313L113.142 98.6252Z" fill="black"/>
<path opacity="0.3" d="M177.899 93.7457C177.899 93.7457 181.795 96.9404 183.129 98.2086L183.564 97.659L178.286 93.2565L177.893 93.7457H177.899Z" fill="black"/>
<path opacity="0.3" d="M38.427 108.723C38.427 108.723 68.0064 112.733 74.2266 117.093C80.4469 121.459 93.1169 138.568 93.1169 138.568C93.1169 138.568 77.5723 122.16 71.352 118.331C65.1318 114.502 38.427 108.723 38.427 108.723Z" fill="black"/>
<path opacity="0.3" d="M50.5231 116.881C50.5231 116.881 47.8056 125.39 54.5391 125.155C61.2787 124.919 63.9963 121.966 63.9963 121.966C63.9963 121.966 62.1061 129.769 67.1849 129.648C72.2698 129.527 75.8148 126.339 75.8148 126.339C75.8148 126.339 68.4833 132.589 64.9384 131.122C61.3935 129.648 62.8972 124.569 62.8972 124.569C62.8972 124.569 54.5935 128.603 51.1633 125.777C47.7331 122.951 48.4034 121.658 50.5171 116.887L50.5231 116.881Z" fill="black"/>
<path opacity="0.3" d="M258.231 107.11C258.231 107.11 228.652 111.12 222.431 115.48C216.211 119.847 203.541 136.955 203.541 136.955C203.541 136.955 219.086 120.547 225.306 116.718C231.526 112.89 258.231 107.11 258.231 107.11Z" fill="black"/>
<path opacity="0.3" d="M246.135 115.275C246.135 115.275 248.852 123.784 242.119 123.549C235.379 123.313 232.662 120.36 232.662 120.36C232.662 120.36 234.552 128.162 229.473 128.042C224.388 127.921 220.843 124.732 220.843 124.732C220.843 124.732 228.175 130.983 231.72 129.515C235.265 128.042 233.761 122.963 233.761 122.963C233.761 122.963 242.065 126.997 245.495 124.171C248.925 121.344 248.255 120.052 246.141 115.281L246.135 115.275Z" fill="black"/>
<path d="M130.915 85.0675C130.825 85.0675 130.734 85.0132 130.704 84.9165C130.662 84.8018 130.722 84.6689 130.837 84.6267C140.24 81.1663 150.784 80.5382 160.525 82.8693C160.646 82.8995 160.724 83.0203 160.694 83.141C160.664 83.2618 160.543 83.3343 160.422 83.3101C150.76 80.9972 140.312 81.6192 130.994 85.0494C130.97 85.0615 130.939 85.0615 130.915 85.0615V85.0675Z" fill="#407BFF"/>
<path d="M163.285 84.0892C163.285 84.0892 163.243 84.0892 163.224 84.0832L161.733 83.6604C161.612 83.6242 161.54 83.5034 161.576 83.3826C161.612 83.2618 161.733 83.1894 161.854 83.2256L163.345 83.6483C163.466 83.6846 163.538 83.8054 163.502 83.9261C163.472 84.0288 163.381 84.0892 163.285 84.0892Z" fill="#407BFF"/>
</svg>
