<svg width="27" height="26" viewBox="0 0 27 26" fill="none" xmlns="http://www.w3.org/2000/svg">
<path d="M13.4 2.16699C11.6761 2.16699 10.0228 2.85181 8.80383 4.0708C7.58484 5.28978 6.90002 6.94309 6.90002 8.66699C6.90002 10.2042 7.22719 11.2107 8.11877 12.3232L13.4 18.417L18.6813 12.3232C19.5729 11.2107 19.9 10.2042 19.9 8.66699C19.9 6.94309 19.2152 5.28978 17.9962 4.0708C16.7772 2.85181 15.1239 2.16699 13.4 2.16699Z" stroke="#202224" stroke-width="2.16667" stroke-linecap="round" stroke-linejoin="round"/>
<path d="M5.81671 16.4053C3.81146 17.1929 2.56671 18.2881 2.56671 19.5004C2.56671 21.8945 7.4168 23.8337 13.4 23.8337C19.3833 23.8337 24.2334 21.8945 24.2334 19.5004C24.2334 18.2881 22.9886 17.1929 20.9834 16.4053" stroke="#202224" stroke-width="2.16667" stroke-linecap="round" stroke-linejoin="round"/>
<path d="M13.4 9.75065C13.9984 9.75065 14.4834 9.26563 14.4834 8.66732C14.4834 8.06901 13.9984 7.58398 13.4 7.58398C12.8017 7.58398 12.3167 8.06901 12.3167 8.66732C12.3167 9.26563 12.8017 9.75065 13.4 9.75065Z" stroke="#202224" stroke-width="2.16667" stroke-linecap="round" stroke-linejoin="round"/>
</svg>
