<svg width="60" height="60" viewBox="0 0 60 60" fill="none" xmlns="http://www.w3.org/2000/svg">
<circle cx="30" cy="30" r="23" fill="#0066D8" fill-opacity="0.1"/>
<circle cx="30" cy="30" r="30" fill="#0066D8" fill-opacity="0.1"/>
<path d="M29.9999 20C28.1434 20 26.3629 20.7375 25.0502 22.0503C23.7374 23.363 22.9999 25.1435 22.9999 27V30.528C23.0001 30.6831 22.9641 30.8362 22.8949 30.975L21.1779 34.408C21.0941 34.5757 21.0545 34.7621 21.0629 34.9494C21.0713 35.1368 21.1275 35.3188 21.2261 35.4783C21.3247 35.6379 21.4624 35.7695 21.6262 35.8608C21.79 35.9521 21.9744 36 22.1619 36H37.8379C38.0255 36 38.2099 35.9521 38.3737 35.8608C38.5375 35.7695 38.6752 35.6379 38.7738 35.4783C38.8724 35.3188 38.9286 35.1368 38.937 34.9494C38.9454 34.7621 38.9058 34.5757 38.8219 34.408L37.1059 30.975C37.0364 30.8362 37.0001 30.6832 36.9999 30.528V27C36.9999 25.1435 36.2624 23.363 34.9497 22.0503C33.6369 20.7375 31.8564 20 29.9999 20ZM29.9999 39C29.3793 39.0003 28.7738 38.8081 28.2669 38.4499C27.7601 38.0917 27.3768 37.5852 27.1699 37H32.8299C32.623 37.5852 32.2398 38.0917 31.7329 38.4499C31.2261 38.8081 30.6206 39.0003 29.9999 39Z" fill="#0066D8"/>
</svg>
