<svg width="12" height="12" viewBox="0 0 12 12" fill="none" xmlns="http://www.w3.org/2000/svg">
<path d="M1.50029 9.50005H10.5003C10.5914 9.49977 10.6807 9.47464 10.7586 9.42736C10.8365 9.38009 10.9001 9.31247 10.9424 9.23178C10.9847 9.15108 11.0042 9.06037 10.9988 8.96941C10.9934 8.87845 10.9634 8.79068 10.9118 8.71555L6.41179 2.21555C6.22529 1.94605 5.77629 1.94605 5.58929 2.21555L1.08929 8.71555C1.0372 8.79052 1.00665 8.87834 1.00097 8.96945C0.995285 9.06056 1.01468 9.15149 1.05704 9.23236C1.09941 9.31322 1.16312 9.38093 1.24127 9.42812C1.31941 9.47532 1.409 9.5002 1.50029 9.50005Z" fill="#979797"/>
</svg>
