<svg width="12" height="12" viewBox="0 0 12 12" fill="none" xmlns="http://www.w3.org/2000/svg">
<path d="M10.4997 2.49995L1.49971 2.49995C1.40859 2.50023 1.31928 2.52536 1.24137 2.57264C1.16347 2.61991 1.09994 2.68753 1.05762 2.76822C1.01529 2.84892 0.99577 2.93963 1.00116 3.03059C1.00655 3.12155 1.03665 3.20932 1.08821 3.28445L5.58821 9.78445C5.77471 10.0539 6.22371 10.0539 6.41071 9.78445L10.9107 3.28445C10.9628 3.20948 10.9933 3.12166 10.999 3.03055C11.0047 2.93944 10.9853 2.84851 10.943 2.76764C10.9006 2.68678 10.8369 2.61907 10.7587 2.57188C10.6806 2.52468 10.591 2.4998 10.4997 2.49995Z" fill="#979797"/>
</svg>
