<svg width="25" height="24" viewBox="0 0 25 24" fill="none" xmlns="http://www.w3.org/2000/svg">
<g clip-path="url(#clip0_1031_2265)">
<path d="M22.5812 18.7367L18.7804 14.9359L15.8569 13.728C16.8304 12.3438 17.3519 10.6923 17.35 9C17.35 4.45092 13.6491 0.75 9.09998 0.75C4.5509 0.75 0.849976 4.45092 0.849976 9C0.849976 13.5491 4.5509 17.25 9.09998 17.25C10.807 17.252 12.4721 16.7214 13.8634 15.7323L15.0681 18.648L18.8687 22.449C19.1125 22.6927 19.4019 22.8861 19.7203 23.018C20.0388 23.15 20.3802 23.2179 20.7249 23.2179C21.0696 23.2179 21.411 23.15 21.7295 23.0181C22.048 22.8862 22.3373 22.6928 22.5811 22.4491C22.8249 22.2053 23.0182 21.9159 23.1502 21.5975C23.2821 21.279 23.35 20.9376 23.35 20.5929C23.35 20.2482 23.2821 19.9068 23.1502 19.5883C23.0183 19.2698 22.825 18.9805 22.5812 18.7367ZM2.34998 9C2.34998 5.27812 5.3781 2.25 9.09998 2.25C12.8219 2.25 15.85 5.27812 15.85 9C15.85 12.7219 12.8219 15.75 9.09998 15.75C5.3781 15.75 2.34998 12.7219 2.34998 9ZM21.5205 21.3883C21.3093 21.599 21.0232 21.7173 20.725 21.7173C20.4267 21.7173 20.1406 21.599 19.9295 21.3883L16.3401 17.799L15.2201 15.088L17.9312 16.208L21.5206 19.7973C21.7312 20.0085 21.8495 20.2946 21.8495 20.5928C21.8494 20.8911 21.7311 21.1772 21.5205 21.3883Z" fill="#202224"/>
</g>
<defs>
<clipPath id="clip0_1031_2265">
<rect width="24" height="24" fill="white" transform="translate(0.0999756)"/>
</clipPath>
</defs>
</svg>
