<svg width="22" height="22" viewBox="0 0 22 22" fill="none" xmlns="http://www.w3.org/2000/svg">
<path d="M7.12435 2.23574L8.1116 1.92041C9.0356 1.62524 10.0238 2.10282 10.4198 3.03599L11.2081 4.89499C11.5519 5.70441 11.3612 6.65682 10.7369 7.24899L9.00168 8.89716C9.10863 9.88349 9.43985 10.8542 9.99535 11.8094C10.5236 12.7333 11.2314 13.5421 12.0771 14.1882L14.1634 13.4915C14.9536 13.2284 15.8144 13.5318 16.2993 14.2441L17.4286 15.9032C17.9933 16.7319 17.8915 17.8741 17.1921 18.5762L16.4423 19.3288C15.6961 20.0777 14.6309 20.35 13.6446 20.042C11.3175 19.316 9.17768 17.1609 7.22518 13.5767C5.27024 9.98646 4.58029 6.94068 5.15535 4.4394C5.39735 3.38707 6.14718 2.54832 7.12618 2.23574" fill="#0066D8"/>
</svg>
