<svg width="22" height="22" viewBox="0 0 22 22" fill="none" xmlns="http://www.w3.org/2000/svg">
<path d="M15.8125 11C16.3595 11 16.8841 11.2173 17.2709 11.6041C17.6577 11.9909 17.875 12.5155 17.875 13.0625V13.75C17.875 16.4601 15.3175 19.25 11 19.25C6.6825 19.25 4.125 16.4601 4.125 13.75V13.0625C4.125 12.5155 4.3423 11.9909 4.72909 11.6041C5.11589 11.2173 5.64049 11 6.1875 11H15.8125ZM11 2.0625C12.0028 2.0625 12.9646 2.46088 13.6737 3.17C14.3829 3.87912 14.7812 4.8409 14.7812 5.84375C14.7812 6.8466 14.3829 7.80838 13.6737 8.5175C12.9646 9.22662 12.0028 9.625 11 9.625C9.99715 9.625 9.03537 9.22662 8.32625 8.5175C7.61713 7.80838 7.21875 6.8466 7.21875 5.84375C7.21875 4.8409 7.61713 3.87912 8.32625 3.17C9.03537 2.46088 9.99715 2.0625 11 2.0625Z" fill="#0066D8"/>
</svg>
