<svg width="22" height="23" viewBox="0 0 22 23" fill="none" xmlns="http://www.w3.org/2000/svg">
<path d="M8.04976 7.6502C8.23456 6.6899 8.48646 5.8275 8.78676 5.0982C9.11786 4.2919 9.49956 3.6748 9.89556 3.2689C10.2894 2.8641 10.6623 2.7002 11 2.7002C11.3377 2.7002 11.7106 2.8641 12.1044 3.2689C12.5004 3.6759 12.8821 4.2919 13.2132 5.0982C13.5135 5.8275 13.7654 6.6899 13.9502 7.6502H8.04976ZM7.76926 4.6802C8.00417 4.08832 8.30961 3.52693 8.67896 3.0082C7.47016 3.34006 6.34597 3.92571 5.38129 4.72614C4.4166 5.52657 3.63356 6.5234 3.08436 7.6502H6.93106C7.13126 6.5425 7.41616 5.536 7.76926 4.6802ZM14.2307 4.6802C13.9957 4.0887 13.6902 3.52769 13.321 3.0093C14.5296 3.34104 15.6538 3.92652 16.6185 4.72676C17.5831 5.52699 18.3662 6.5236 18.9156 7.6502H15.0689C14.8687 6.5425 14.5838 5.536 14.2307 4.6802ZM15.235 8.7502H19.3622C19.6196 9.5334 19.7692 10.365 19.7956 11.2285C18.9852 10.682 18.0284 10.3936 17.0511 10.4013C16.4571 10.4013 15.8983 10.5003 15.3857 10.6818C15.3638 10.036 15.3135 9.39154 15.235 8.7502ZM14.2989 11.234C14.2907 10.4034 14.233 9.57396 14.1262 8.7502H7.87376C7.75539 9.66204 7.69733 10.5807 7.69996 11.5002C7.69996 12.4627 7.76156 13.3856 7.87376 14.2502H12.254C12.5532 13.0094 13.277 11.9303 14.2989 11.234ZM12.1033 15.3502H8.04976C8.23456 16.3105 8.48646 17.1729 8.78676 17.9022C9.11786 18.7085 9.49956 19.3256 9.89556 19.7315C10.2894 20.1363 10.6623 20.3002 11 20.3002C11.3377 20.3002 11.7106 20.1363 12.1044 19.7315C12.3838 19.4455 12.6566 19.0528 12.9096 18.5622C12.3695 17.5348 12.1 16.5052 12.1 15.5504L12.1033 15.3502ZM3.08436 15.3502C3.63381 16.4769 4.41707 17.4736 5.38194 18.2738C6.34682 19.0741 7.47117 19.6595 8.68006 19.9911C8.31048 19.4731 8.00468 18.9125 7.76926 18.3213C7.41726 17.4633 7.13126 16.4579 6.93106 15.3502H3.08436ZM6.76496 14.2502H2.63776C2.3468 13.3626 2.19901 12.4343 2.19996 11.5002C2.19996 10.5399 2.35396 9.6159 2.63776 8.7502H6.76496C6.65716 9.6247 6.59996 10.5476 6.59996 11.5002C6.59996 12.4528 6.65716 13.3757 6.76496 14.2502ZM20.9 15.5504C20.9 13.3141 19.2885 11.5013 17.0511 11.5013C14.8137 11.5013 13.2 13.3141 13.2 15.5504C13.2 17.2268 14.2802 19.4334 16.7816 21.31C16.9411 21.431 17.1611 21.431 17.3206 21.31C19.8242 19.4334 20.9 17.2268 20.9 15.5504ZM18.7 15.3502C18.7 15.7878 18.5261 16.2075 18.2167 16.5169C17.9072 16.8264 17.4876 17.0002 17.05 17.0002C16.6123 17.0002 16.1927 16.8264 15.8832 16.5169C15.5738 16.2075 15.4 15.7878 15.4 15.3502C15.4 14.9126 15.5738 14.4929 15.8832 14.1835C16.1927 13.874 16.6123 13.7002 17.05 13.7002C17.4876 13.7002 17.9072 13.874 18.2167 14.1835C18.5261 14.4929 18.7 14.9126 18.7 15.3502Z" fill="black"/>
</svg>
