<svg width="65" height="65" viewBox="0 0 65 65" fill="none" xmlns="http://www.w3.org/2000/svg">
<circle cx="32.5" cy="32.5" r="32.5" fill="#EF3826" fill-opacity="0.1"/>
<circle cx="32.5" cy="32.5" r="28.5" fill="#EF3826" fill-opacity="0.1"/>
<path fill-rule="evenodd" clip-rule="evenodd" d="M49.3326 32.6667C49.3326 41.8717 41.8709 49.3333 32.6659 49.3333C23.4609 49.3333 15.9993 41.8717 15.9993 32.6667C15.9993 23.4617 23.4609 16 32.6659 16C41.8709 16 49.3326 23.4617 49.3326 32.6667ZM32.6659 46C36.2022 46 39.5935 44.5952 42.094 42.0948C44.5945 39.5943 45.9993 36.2029 45.9993 32.6667C45.9993 29.1304 44.5945 25.7391 42.094 23.2386C39.5935 20.7381 36.2022 19.3333 32.6659 19.3333C29.1297 19.3333 25.7383 20.7381 23.2378 23.2386C20.7374 25.7391 19.3326 29.1304 19.3326 32.6667C19.3326 36.2029 20.7374 39.5943 23.2378 42.0948C25.7383 44.5952 29.1297 46 32.6659 46Z" fill="#EF3826"/>
<path fill-rule="evenodd" clip-rule="evenodd" d="M32.6659 36.0002C32.2239 36.0002 31.8 35.8246 31.4874 35.512C31.1749 35.1994 30.9993 34.7755 30.9993 34.3335V26.0002C30.9993 25.5581 31.1749 25.1342 31.4874 24.8217C31.8 24.5091 32.2239 24.3335 32.6659 24.3335C33.108 24.3335 33.5319 24.5091 33.8444 24.8217C34.157 25.1342 34.3326 25.5581 34.3326 26.0002V34.3335C34.3326 34.7755 34.157 35.1994 33.8444 35.512C33.5319 35.8246 33.108 36.0002 32.6659 36.0002Z" fill="#EF3826"/>
<path d="M30.9993 39.3332C30.9993 38.8911 31.1749 38.4672 31.4874 38.1547C31.8 37.8421 32.2239 37.6665 32.6659 37.6665C33.108 37.6665 33.5319 37.8421 33.8444 38.1547C34.157 38.4672 34.3326 38.8911 34.3326 39.3332C34.3326 39.7752 34.157 40.1991 33.8444 40.5117C33.5319 40.8242 33.108 40.9998 32.6659 40.9998C32.2239 40.9998 31.8 40.8242 31.4874 40.5117C31.1749 40.1991 30.9993 39.7752 30.9993 39.3332Z" fill="#EF3826"/>
</svg>
