<svg width="60" height="60" viewBox="0 0 60 60" fill="none" xmlns="http://www.w3.org/2000/svg">
<circle cx="30" cy="30" r="23" fill="#004AAD" fill-opacity="0.1"/>
<circle cx="30" cy="30" r="30" fill="#004AAD" fill-opacity="0.1"/>
<path fill-rule="evenodd" clip-rule="evenodd" d="M21.5168 35L28.5748 23.217C28.7234 22.9722 28.9326 22.7698 29.1822 22.6293C29.4318 22.4888 29.7134 22.415 29.9998 22.415C30.2862 22.415 30.5678 22.4888 30.8174 22.6293C31.067 22.7698 31.2762 22.9722 31.4248 23.217L38.4828 35C38.6282 35.2521 38.7051 35.5378 38.7059 35.8287C38.7067 36.1197 38.6313 36.4058 38.4872 36.6586C38.3431 36.9114 38.1353 37.1221 37.8846 37.2697C37.6338 37.4173 37.3488 37.4967 37.0578 37.5H22.9418C22.6507 37.497 22.3655 37.4178 22.1146 37.2703C21.8636 37.1227 21.6557 36.912 21.5116 36.6591C21.3674 36.4062 21.2921 36.12 21.293 35.8289C21.2939 35.5378 21.3711 35.252 21.5168 35ZM29.9998 27C30.265 27 30.5194 27.1054 30.7069 27.2929C30.8944 27.4804 30.9998 27.7348 30.9998 28V31C30.9998 31.2652 30.8944 31.5196 30.7069 31.7071C30.5194 31.8947 30.265 32 29.9998 32C29.7346 32 29.4802 31.8947 29.2927 31.7071C29.1052 31.5196 28.9998 31.2652 28.9998 31V28C28.9998 27.7348 29.1052 27.4804 29.2927 27.2929C29.4802 27.1054 29.7346 27 29.9998 27ZM28.9998 34C28.9998 33.7348 29.1052 33.4804 29.2927 33.2929C29.4802 33.1054 29.7346 33 29.9998 33H30.0078C30.273 33 30.5274 33.1054 30.7149 33.2929C30.9024 33.4804 31.0078 33.7348 31.0078 34C31.0078 34.2652 30.9024 34.5196 30.7149 34.7071C30.5274 34.8947 30.273 35 30.0078 35H29.9998C29.7346 35 29.4802 34.8947 29.2927 34.7071C29.1052 34.5196 28.9998 34.2652 28.9998 34Z" fill="#0066D8"/>
</svg>
