<svg width="26" height="26" viewBox="0 0 26 26" fill="none" xmlns="http://www.w3.org/2000/svg">
<path fill-rule="evenodd" clip-rule="evenodd" d="M5.50213 5.49144C9.61338 1.38561 16.2975 1.42894 20.4337 5.56619C24.572 9.70452 24.6154 16.3919 20.503 20.5032C16.3907 24.6144 9.70438 24.5722 5.56605 20.4339C4.40187 19.2747 3.52227 17.8615 2.99633 16.3051C2.47039 14.7487 2.31244 13.0916 2.53488 11.4639C2.56404 11.2502 2.67687 11.0569 2.84855 10.9265C3.02022 10.7961 3.23668 10.7392 3.4503 10.7684C3.66392 10.7975 3.8572 10.9103 3.98764 11.082C4.11807 11.2537 4.17496 11.4702 4.1458 11.6838C3.95695 13.0632 4.09063 14.4676 4.53632 15.7866C4.98201 17.1057 5.72757 18.3033 6.71438 19.2855C10.2298 22.7999 15.888 22.8204 19.3547 19.3549C22.8203 15.8882 22.7997 10.2299 19.2854 6.71452C15.7721 3.20236 10.1171 3.17961 6.65046 6.64086L7.4608 6.64411C7.5675 6.6446 7.67305 6.66611 7.77144 6.70741C7.86982 6.7487 7.95911 6.80896 8.03421 6.88476C8.10931 6.96056 8.16874 7.05041 8.20911 7.14918C8.24948 7.24795 8.27 7.3537 8.26951 7.4604C8.26901 7.5671 8.2475 7.67265 8.20621 7.77104C8.16491 7.86943 8.10465 7.95872 8.02885 8.03381C7.95305 8.10891 7.8632 8.16834 7.76443 8.20871C7.66566 8.24908 7.55991 8.2696 7.45321 8.26911L4.69505 8.25611C4.48087 8.25497 4.27581 8.1693 4.12446 8.01776C3.97312 7.86621 3.88773 7.66103 3.88688 7.44686L3.8728 4.69086C3.87223 4.58416 3.89268 4.47839 3.93299 4.3796C3.97329 4.2808 4.03266 4.19091 4.10771 4.11506C4.18275 4.03921 4.272 3.97889 4.37036 3.93753C4.46872 3.89617 4.57426 3.87459 4.68096 3.87402C4.78766 3.87345 4.89343 3.89391 4.99222 3.93421C5.09102 3.97452 5.18091 4.03389 5.25676 4.10893C5.33261 4.18398 5.39293 4.27323 5.43429 4.37159C5.47565 4.46995 5.49723 4.57549 5.4978 4.68219L5.50213 5.49144ZM12.9988 7.85311C13.2143 7.85311 13.4209 7.93871 13.5733 8.09108C13.7257 8.24346 13.8113 8.45012 13.8113 8.66561V12.6631L16.2824 15.1331C16.36 15.208 16.422 15.2976 16.4646 15.3968C16.5072 15.4959 16.5297 15.6025 16.5307 15.7104C16.5317 15.8182 16.5111 15.9252 16.4703 16.0251C16.4295 16.125 16.3692 16.2157 16.293 16.292C16.2167 16.3684 16.1261 16.4287 16.0262 16.4696C15.9264 16.5105 15.8194 16.5311 15.7115 16.5303C15.6036 16.5294 15.497 16.507 15.3979 16.4645C15.2987 16.4219 15.209 16.3601 15.134 16.2825L12.1874 13.3359V8.66669C12.1874 8.4512 12.273 8.24454 12.4254 8.09216C12.5777 7.93979 12.7844 7.85419 12.9999 7.85419" fill="#0066D8"/>
</svg>
