<svg width="22" height="23" viewBox="0 0 22 23" fill="none" xmlns="http://www.w3.org/2000/svg">
<path d="M18.3333 4.1665H3.66659C2.65825 4.1665 1.84242 4.9915 1.84242 5.99984L1.83325 16.9998C1.83325 18.0082 2.65825 18.8332 3.66659 18.8332H18.3333C19.3416 18.8332 20.1666 18.0082 20.1666 16.9998V5.99984C20.1666 4.9915 19.3416 4.1665 18.3333 4.1665ZM17.9666 8.06234L11.4858 12.114C11.1924 12.2973 10.8074 12.2973 10.5141 12.114L4.03325 8.06234C3.94134 8.01074 3.86084 7.94103 3.79665 7.85742C3.73246 7.77381 3.68589 7.67805 3.65978 7.57593C3.63367 7.4738 3.62855 7.36744 3.64473 7.26329C3.66091 7.15913 3.69806 7.05933 3.75393 6.96995C3.80979 6.88056 3.88322 6.80344 3.96975 6.74325C4.05629 6.68306 4.15413 6.64106 4.25737 6.61978C4.36061 6.5985 4.46709 6.59839 4.57038 6.61946C4.67366 6.64052 4.77159 6.68233 4.85825 6.74234L10.9999 10.5832L17.1416 6.74234C17.2282 6.68233 17.3262 6.64052 17.4295 6.61946C17.5327 6.59839 17.6392 6.5985 17.7425 6.61978C17.8457 6.64106 17.9436 6.68306 18.0301 6.74325C18.1166 6.80344 18.19 6.88056 18.2459 6.96995C18.3018 7.05933 18.3389 7.15913 18.3551 7.26329C18.3713 7.36744 18.3662 7.4738 18.3401 7.57593C18.3139 7.67805 18.2674 7.77381 18.2032 7.85742C18.139 7.94103 18.0585 8.01074 17.9666 8.06234Z" fill="#202224"/>
</svg>
