<svg width="22" height="23" viewBox="0 0 22 23" fill="none" xmlns="http://www.w3.org/2000/svg">
<path d="M15.8125 1.1875H6.1875C5.4584 1.1883 4.75939 1.47828 4.24384 1.99384C3.72828 2.50939 3.4383 3.2084 3.4375 3.9375V19.0625C3.4383 19.7916 3.72828 20.4906 4.24384 21.0062C4.75939 21.5217 5.4584 21.8117 6.1875 21.8125H15.8125C16.5416 21.8117 17.2406 21.5217 17.7562 21.0062C18.2717 20.4906 18.5617 19.7916 18.5625 19.0625V3.9375C18.5617 3.2084 18.2717 2.50939 17.7562 1.99384C17.2406 1.47828 16.5416 1.1883 15.8125 1.1875ZM14.3292 12.725C14.6545 13.0761 14.8135 13.5483 14.7757 14.0545C14.7013 15.0625 13.9326 15.8828 13.0625 15.8828C12.1924 15.8828 11.4224 15.0625 11.3489 14.0545C11.312 13.5432 11.4696 13.0701 11.7932 12.7225C12.1168 12.3748 12.5641 12.1875 13.0625 12.1875C13.2994 12.1841 13.5344 12.2301 13.7525 12.3227C13.9707 12.4152 14.1671 12.5523 14.3292 12.725ZM8.25 3.9375C8.25 3.75516 8.32243 3.5803 8.45136 3.45136C8.5803 3.32243 8.75516 3.25 8.9375 3.25H13.0625C13.2448 3.25 13.4197 3.32243 13.5486 3.45136C13.6776 3.5803 13.75 3.75516 13.75 3.9375C13.75 4.11984 13.6776 4.2947 13.5486 4.42364C13.4197 4.55257 13.2448 4.625 13.0625 4.625H8.9375C8.75516 4.625 8.5803 4.55257 8.45136 4.42364C8.32243 4.2947 8.25 4.11984 8.25 3.9375ZM16.3711 19.5708C16.3216 19.6281 16.2601 19.6739 16.191 19.7048C16.1219 19.7358 16.0468 19.7512 15.9711 19.75H10.1539C10.0782 19.7512 10.0031 19.7358 9.93403 19.7048C9.86491 19.6739 9.80342 19.6281 9.75391 19.5708C9.70022 19.5065 9.66168 19.4309 9.64115 19.3497C9.62063 19.2685 9.61863 19.1837 9.63531 19.1016C9.77496 18.3471 10.2102 17.7133 10.8943 17.2686C11.5019 16.8737 12.2719 16.6562 13.0625 16.6562C13.8531 16.6562 14.6231 16.8737 15.2307 17.2686C15.9148 17.7133 16.35 18.3471 16.4897 19.1016C16.5064 19.1837 16.5044 19.2685 16.4838 19.3497C16.4633 19.4309 16.4248 19.5065 16.3711 19.5708Z" fill="black"/>
</svg>
