<svg width="64" height="64" viewBox="0 0 64 64" fill="none" xmlns="http://www.w3.org/2000/svg">
<g clip-path="url(#clip0_200_1048)" filter="url(#filter0_d_200_1048)">
<path d="M3.28035 29.641C3.27894 34.6821 4.60644 39.6045 7.13066 43.9431L3.03894 58.7668L18.3277 54.7891C22.5564 57.0733 27.2943 58.2702 32.1089 58.2705H32.1216C48.0157 58.2705 60.9539 45.4373 60.9607 29.6635C60.9638 22.0201 57.9666 14.8326 52.5211 9.42517C47.0766 4.01819 39.8356 1.03889 32.1204 1.0354C16.2244 1.0354 3.28714 13.868 3.28058 29.641" fill="url(#paint0_linear_200_1048)"/>
<path d="M2.25078 29.6316C2.24914 34.8542 3.62422 39.9526 6.23844 44.4465L2 59.8016L17.837 55.6814C22.2005 58.0421 27.1135 59.2867 32.1127 59.2886H32.1256C48.59 59.2886 61.993 45.9937 62 29.6553C62.0028 21.7372 58.8978 14.2914 53.2578 8.69023C47.6171 3.08977 40.1171 0.00325581 32.1256 0C15.6584 0 2.25734 13.293 2.25078 29.6316ZM11.6823 43.6726L11.0909 42.7412C8.60516 38.8193 7.29312 34.2872 7.295 29.6335C7.30016 16.0533 18.4386 5.00465 32.135 5.00465C38.7678 5.00744 45.0013 7.57302 49.6897 12.2279C54.3779 16.8833 56.9577 23.0716 56.956 29.6535C56.9499 43.2337 45.8112 54.2837 32.1256 54.2837H32.1158C27.6596 54.2814 23.2892 53.094 19.4778 50.85L18.5708 50.3163L9.17281 52.7612L11.6823 43.6726Z" fill="url(#paint1_linear_200_1048)"/>
<path d="M24.659 17.2438C24.0997 16.0105 23.5112 15.9856 22.9794 15.964C22.544 15.9454 22.0461 15.9468 21.5488 15.9468C21.051 15.9468 20.2422 16.1326 19.5585 16.8733C18.8741 17.6147 16.9457 19.4063 16.9457 23.0503C16.9457 26.6942 19.6206 30.2161 19.9935 30.7108C20.3669 31.2045 25.1575 38.9217 32.7447 41.8905C39.0503 44.3577 40.3335 43.867 41.702 43.7433C43.0708 43.6201 46.1186 41.9521 46.7404 40.2226C47.3626 38.4933 47.3626 37.011 47.1761 36.7012C46.9895 36.3926 46.4917 36.2073 45.7452 35.837C44.9987 35.4668 41.3286 33.6747 40.6445 33.4275C39.9601 33.1805 39.4626 33.0573 38.9647 33.7989C38.4669 34.5394 37.0375 36.2073 36.6018 36.7012C36.1665 37.1963 35.7308 37.258 34.9846 36.8875C34.2376 36.5159 31.8336 35.7347 28.9815 33.2117C26.7625 31.2484 25.2644 28.824 24.8289 28.0824C24.3934 27.3419 24.7822 26.9405 25.1565 26.5715C25.4919 26.2396 25.9033 25.7066 26.2769 25.2742C26.649 24.8417 26.7733 24.5331 27.0222 24.0391C27.2713 23.5447 27.1466 23.1122 26.9603 22.7417C26.7733 22.3712 25.3227 18.7082 24.659 17.2438Z" fill="white"/>
</g>
<defs>
<filter id="filter0_d_200_1048" x="0" y="0" width="64" height="64" filterUnits="userSpaceOnUse" color-interpolation-filters="sRGB">
<feFlood flood-opacity="0" result="BackgroundImageFix"/>
<feColorMatrix in="SourceAlpha" type="matrix" values="0 0 0 0 0 0 0 0 0 0 0 0 0 0 0 0 0 0 127 0" result="hardAlpha"/>
<feOffset dy="2"/>
<feGaussianBlur stdDeviation="1"/>
<feComposite in2="hardAlpha" operator="out"/>
<feColorMatrix type="matrix" values="0 0 0 0 0 0 0 0 0 0 0 0 0 0 0 0 0 0 0.1 0"/>
<feBlend mode="normal" in2="BackgroundImageFix" result="effect1_dropShadow_200_1048"/>
<feBlend mode="normal" in="SourceGraphic" in2="effect1_dropShadow_200_1048" result="shape"/>
</filter>
<linearGradient id="paint0_linear_200_1048" x1="2899.13" y1="5774.18" x2="2899.13" y2="1.0354" gradientUnits="userSpaceOnUse">
<stop stop-color="#1FAF38"/>
<stop offset="1" stop-color="#60D669"/>
</linearGradient>
<linearGradient id="paint1_linear_200_1048" x1="3002" y1="5980.16" x2="3002" y2="0" gradientUnits="userSpaceOnUse">
<stop stop-color="#F9F9F9"/>
<stop offset="1" stop-color="white"/>
</linearGradient>
<clipPath id="clip0_200_1048">
<rect width="60" height="60" fill="white" transform="translate(2)"/>
</clipPath>
</defs>
</svg>
