<svg width="22" height="22" viewBox="0 0 22 22" fill="none" xmlns="http://www.w3.org/2000/svg">
<path d="M11 1.8335C9.29821 1.8335 7.66611 2.50954 6.46275 3.71289C5.25939 4.91625 4.58335 6.54836 4.58335 8.25016V11.4842C4.58348 11.6264 4.55053 11.7666 4.4871 11.8939L2.91318 15.0408C2.8363 15.1946 2.8 15.3654 2.80772 15.5371C2.81544 15.7089 2.86694 15.8758 2.95732 16.022C3.04769 16.1682 3.17395 16.2889 3.3241 16.3726C3.47424 16.4563 3.64329 16.5002 3.81518 16.5002H18.1849C18.3567 16.5002 18.5258 16.4563 18.6759 16.3726C18.8261 16.2889 18.9523 16.1682 19.0427 16.022C19.1331 15.8758 19.1846 15.7089 19.1923 15.5371C19.2 15.3654 19.1637 15.1946 19.0869 15.0408L17.5139 11.8939C17.4501 11.7667 17.4168 11.6264 17.4167 11.4842V8.25016C17.4167 6.54836 16.7406 4.91625 15.5373 3.71289C14.3339 2.50954 12.7018 1.8335 11 1.8335ZM11 19.2502C10.4311 19.2505 9.87607 19.0743 9.41145 18.7459C8.94683 18.4176 8.59549 17.9532 8.40585 17.4168H13.5942C13.4045 17.9532 13.0532 18.4176 12.5886 18.7459C12.124 19.0743 11.5689 19.2505 11 19.2502Z" fill="#0066D8"/>
</svg>
