<svg width="22" height="23" viewBox="0 0 22 23" fill="none" xmlns="http://www.w3.org/2000/svg">
<path d="M11.0009 2.3335C16.0637 2.3335 20.1676 6.43741 20.1676 11.5002C20.1676 16.5629 16.0637 20.6668 11.0009 20.6668C9.38093 20.6696 7.78944 20.2409 6.39008 19.4247L1.83791 20.6668L3.07724 16.1128C2.26045 14.713 1.8314 13.1208 1.83424 11.5002C1.83424 6.43741 5.93816 2.3335 11.0009 2.3335ZM7.87691 7.19183L7.69358 7.19916C7.57504 7.20733 7.45923 7.23846 7.35258 7.29083C7.25319 7.34721 7.16242 7.4176 7.08308 7.49983C6.97308 7.60341 6.91074 7.69325 6.84383 7.78033C6.50477 8.22116 6.32222 8.76237 6.32499 9.3185C6.32683 9.76766 6.44416 10.2049 6.62749 10.6137C7.00241 11.4406 7.61933 12.316 8.43333 13.1272C8.62949 13.3225 8.82199 13.5187 9.02916 13.7011C10.0406 14.5915 11.2459 15.2337 12.5492 15.5766L13.0698 15.6563C13.2394 15.6655 13.409 15.6527 13.5795 15.6444C13.8464 15.6303 14.107 15.5581 14.3431 15.4327C14.463 15.3706 14.5802 15.3034 14.6942 15.231C14.6942 15.231 14.733 15.2047 14.8087 15.1485C14.9325 15.0568 15.0086 14.9917 15.1112 14.8845C15.1882 14.8051 15.2524 14.7128 15.3037 14.6077C15.3752 14.4582 15.4467 14.1732 15.4761 13.9357C15.4981 13.7542 15.4917 13.6552 15.4889 13.5938C15.4852 13.4957 15.4037 13.394 15.3147 13.3509L14.7812 13.1117C14.7812 13.1117 13.9837 12.7642 13.4961 12.5424C13.445 12.5202 13.3904 12.5075 13.3347 12.5048C13.272 12.4983 13.2086 12.5053 13.1488 12.5254C13.089 12.5454 13.0343 12.5781 12.9882 12.6212C12.9837 12.6194 12.9222 12.6717 12.2595 13.4747C12.2215 13.5258 12.1691 13.5644 12.109 13.5856C12.0489 13.6069 11.9839 13.6097 11.9222 13.5938C11.8624 13.5779 11.8039 13.5577 11.7471 13.5333C11.6334 13.4857 11.594 13.4673 11.5161 13.4343C10.9898 13.2051 10.5026 12.8949 10.0723 12.5149C9.95683 12.4141 9.84958 12.3041 9.73958 12.1977C9.37897 11.8524 9.06468 11.4616 8.80458 11.0354L8.75049 10.9483C8.71223 10.8895 8.68086 10.8264 8.65699 10.7604C8.62216 10.6257 8.71291 10.5175 8.71291 10.5175C8.71291 10.5175 8.93566 10.2737 9.03924 10.1417C9.14008 10.0133 9.22533 9.88866 9.28033 9.79975C9.38849 9.62558 9.42241 9.44683 9.36558 9.30841C9.10891 8.68141 8.84369 8.05777 8.56991 7.4375C8.51583 7.31466 8.35541 7.22666 8.20966 7.20925C8.16016 7.20314 8.11066 7.19825 8.06116 7.19458C7.93808 7.18752 7.81466 7.18875 7.69174 7.19825L7.87691 7.19183Z" fill="black"/>
</svg>
