<svg width="22" height="22" viewBox="0 0 22 22" fill="none" xmlns="http://www.w3.org/2000/svg">
<path fill-rule="evenodd" clip-rule="evenodd" d="M7.21875 11.0002C7.21875 11.1825 7.29118 11.3574 7.42011 11.4863C7.54904 11.6152 7.72391 11.6877 7.90625 11.6877L17.9648 11.6877L16.1672 13.2277C16.0986 13.2864 16.0423 13.3581 16.0013 13.4386C15.9604 13.5191 15.9358 13.6069 15.9288 13.697C15.9218 13.7871 15.9327 13.8776 15.9607 13.9635C15.9887 14.0494 16.0333 14.1289 16.0921 14.1975C16.1508 14.2661 16.2225 14.3225 16.303 14.3634C16.3836 14.4043 16.4714 14.429 16.5614 14.4359C16.6515 14.4429 16.742 14.4321 16.8279 14.4041C16.9138 14.3761 16.9933 14.3314 17.0619 14.2727L20.2702 11.5227C20.3457 11.4581 20.4063 11.378 20.4479 11.2878C20.4894 11.1976 20.5109 11.0995 20.5109 11.0002C20.5109 10.9008 20.4894 10.8027 20.4479 10.7125C20.4063 10.6223 20.3457 10.5422 20.2702 10.4777L17.0619 7.72766C16.9233 7.60902 16.7433 7.55028 16.5614 7.56438C16.3796 7.57848 16.2107 7.66425 16.0921 7.80282C15.9734 7.9414 15.9147 8.12143 15.9288 8.30331C15.9429 8.48519 16.0287 8.65402 16.1672 8.77266L17.9639 10.3127L7.90625 10.3127C7.72391 10.3127 7.54904 10.3851 7.42011 10.514C7.29118 10.643 7.21875 10.8178 7.21875 11.0002Z" fill="#FF0000"/>
<path d="M13.4062 14.6665C13.4062 14.023 13.4063 13.7013 13.2513 13.4693C13.1846 13.3696 13.099 13.284 12.9992 13.2173C12.7673 13.0623 12.4456 13.0623 11.8021 13.0623H7.90625C7.35924 13.0623 6.83464 12.845 6.44784 12.4582C6.06105 12.0715 5.84375 11.5468 5.84375 10.9998C5.84375 10.4528 6.06105 9.92822 6.44784 9.54143C6.83464 9.15464 7.35924 8.93734 7.90625 8.93734H11.8021C12.4456 8.93734 12.7673 8.93734 12.9992 8.78334C13.0991 8.71635 13.1847 8.63038 13.2513 8.53034C13.4063 8.29842 13.4062 7.97667 13.4062 7.33317C13.4062 4.74084 13.4063 3.44375 12.6005 2.63892C11.7957 1.83317 10.4995 1.83317 7.90717 1.83317H6.9905C4.39633 1.83317 3.10108 1.83317 2.29533 2.63892C1.48958 3.44375 1.48958 4.74084 1.48958 7.33317L1.48958 14.6665C1.48958 17.2588 1.48958 18.5559 2.29533 19.3608C3.10108 20.1656 4.39725 20.1665 6.98958 20.1665H7.90625C10.4995 20.1665 11.7957 20.1665 12.6005 19.3608C13.4063 18.5559 13.4062 17.2588 13.4062 14.6665Z" fill="#FF0000"/>
</svg>
