<svg width="40" height="40" viewBox="0 0 40 40" fill="none" xmlns="http://www.w3.org/2000/svg">
<path d="M14.6884 19.3535C15.45 18.7202 16.2184 18.7202 16.9984 19.3718L17.1784 19.5352L25.4884 27.8452L25.645 27.9835C25.9657 28.2321 26.3661 28.3551 26.771 28.3296C27.176 28.304 27.5577 28.1316 27.8446 27.8447C28.1315 27.5578 28.3039 27.1761 28.3295 26.7712C28.355 26.3662 28.2319 25.9659 27.9834 25.6452L27.845 25.4885L25.6917 23.3335L26.1784 22.8452L26.355 22.6868C27.1167 22.0535 27.885 22.0535 28.665 22.7052L28.845 22.8685L36.635 30.6602C36.4773 32.2473 35.7557 33.7252 34.6013 34.8258C33.4469 35.9264 31.9362 36.5766 30.3434 36.6585L30 36.6668H10C8.34656 36.6667 6.75211 36.0522 5.5263 34.9425C4.3005 33.8328 3.53082 32.3071 3.36671 30.6618L14.5117 19.5118L14.6884 19.3535ZM30 3.3335C31.7104 3.33349 33.3554 3.99089 34.5947 5.1697C35.834 6.34852 36.5729 7.95856 36.6584 9.66683L36.6667 10.0002V25.9752L31.1784 20.4885L30.9284 20.2602C28.835 18.4352 26.1784 18.4318 24.1017 20.2318L23.845 20.4652L23.3334 20.9752L19.5117 17.1552L19.2617 16.9268C17.1684 15.1018 14.5117 15.0985 12.435 16.8985L12.1784 17.1318L3.33337 25.9752V10.0002C3.33337 8.28976 3.99077 6.64478 5.16958 5.40548C6.34839 4.16617 7.95844 3.42735 9.66671 3.34183L10 3.3335H30ZM25.0167 11.6668L24.805 11.6785C24.4 11.7267 24.0266 11.9218 23.7557 12.2268C23.4848 12.5318 23.3352 12.9256 23.3352 13.3335C23.3352 13.7414 23.4848 14.1352 23.7557 14.4402C24.0266 14.7452 24.4 14.9403 24.805 14.9885L25 15.0002L25.2117 14.9885C25.6168 14.9403 25.9901 14.7452 26.261 14.4402C26.5319 14.1352 26.6815 13.7414 26.6815 13.3335C26.6815 12.9256 26.5319 12.5318 26.261 12.2268C25.9901 11.9218 25.6168 11.7267 25.2117 11.6785L25.0167 11.6668Z" fill="#202224" fill-opacity="0.5"/>
</svg>
